<?xml version="1.0" encoding="utf-8"?>
<!-- Generator: Adobe Illustrator 18.1.1, SVG Export Plug-In . SVG Version: 6.00 Build 0)  -->
<svg version="1.2" baseProfile="tiny" id="图层_1"
	 xmlns="http://www.w3.org/2000/svg" xmlns:xlink="http://www.w3.org/1999/xlink" x="0px" y="0px" viewBox="0 0 44 44"
	 xml:space="preserve">
<g>
	<path fill="#FF9641" d="M43,18.8c-0.2,0-0.4-0.1-0.6-0.2l-20.5-16L1.6,17.8c-0.4,0.3-1.1,0.2-1.4-0.2c-0.3-0.4-0.2-1.1,0.2-1.4
		L21.3,0.5c0.4-0.3,0.9-0.3,1.2,0L43.6,17c0.4,0.3,0.5,1,0.2,1.4C43.6,18.7,43.3,18.8,43,18.8z"/>
	<path fill="#FF9641" d="M35.4,43.8H8.6c-2.2,0-4.2-2-4.2-4.2V22.2c0-0.3,0.2-0.6,0.4-0.8L21.4,9.2c0.4-0.3,0.8-0.3,1.2,0l16.6,12.4
		c0.3,0.2,0.4,0.5,0.4,0.8v17.2C39.6,41.8,37.6,43.8,35.4,43.8z M6.4,22.7v16.9c0,1.2,1,2.2,2.2,2.2h26.8c1.2,0,2.2-1,2.2-2.2V22.9
		L22,11.2L6.4,22.7z"/>
</g>
</svg>
