<?xml version="1.0" encoding="utf-8"?>
<!-- Generator: Adobe Illustrator 18.1.1, SVG Export Plug-In . SVG Version: 6.00 Build 0)  -->
<svg version="1.1" id="图层_1" xmlns="http://www.w3.org/2000/svg" xmlns:xlink="http://www.w3.org/1999/xlink" x="0px" y="0px"
	 viewBox="0 0 30 32.2" enable-background="new 0 0 30 32.2" xml:space="preserve">
<g>
	<path fill="#FF9641" d="M13.8,32.2H4.6c-2.5,0-4.6-2.1-4.6-4.6v-23C0,2.1,2.1,0,4.6,0h20.8C27.9,0,30,2.1,30,4.6v13.9
		c0,0.6-0.4,1-1,1s-1-0.4-1-1V4.6C28,3.2,26.8,2,25.4,2H4.6C3.2,2,2,3.2,2,4.6v23c0,1.4,1.2,2.6,2.6,2.6h9.2c0.6,0,1,0.4,1,1
		S14.3,32.2,13.8,32.2z"/>
	<path fill="#FF9641" d="M21.4,9.5H8.5c-0.6,0-1-0.4-1-1s0.4-1,1-1h12.9c0.6,0,1,0.4,1,1S22,9.5,21.4,9.5z"/>
	<path fill="#FF9641" d="M21.4,17H8.5c-0.6,0-1-0.4-1-1s0.4-1,1-1h12.9c0.6,0,1,0.4,1,1S22,17,21.4,17z"/>
	<path fill="#FF9641" d="M13.9,24.4H8.5c-0.6,0-1-0.4-1-1s0.4-1,1-1h5.4c0.6,0,1,0.4,1,1S14.4,24.4,13.9,24.4z"/>
	<path fill="#FF9641" d="M21.4,32.2c-0.3,0-0.5-0.1-0.7-0.3l-2.8-2.7c-0.4-0.4-0.4-1,0-1.4c0.4-0.4,1-0.4,1.4,0l2.1,2l6.9-7.2
		c0.4-0.4,1-0.4,1.4,0c0.4,0.4,0.4,1,0,1.4l-7.6,7.9C22,32,21.7,32.1,21.4,32.2C21.4,32.2,21.4,32.2,21.4,32.2z"/>
</g>
</svg>
