<?xml version="1.0" encoding="utf-8"?>
<!-- Generator: Adobe Illustrator 18.1.1, SVG Export Plug-In . SVG Version: 6.00 Build 0)  -->
<svg version="1.1" baseProfile="tiny" id="图层_1"
	 xmlns="http://www.w3.org/2000/svg" xmlns:xlink="http://www.w3.org/1999/xlink" x="0px" y="0px" viewBox="0 0 26 26"
	 xml:space="preserve">
<g>
	<path fill="#FF9641" d="M23.4,13l-7.1-5.5v2.9H8.4v5.3h7.8v2.9L23.4,13z M20.5,18.5c-0.5,0-1,0.4-1,1v1.3c0,1.3-1,2.3-2.3,2.3H6.8
		c-1.3,0-2.3-1-2.3-2.3V5.2c0-1.3,1-2.3,2.3-2.3h10.4c1.3,0,2.3,1,2.3,2.3v1.3c0,0.5,0.4,1,1,1c0.5,0,1-0.4,1-1V5.2
		c0-2.3-1.9-4.2-4.2-4.2H6.8C4.5,1,2.6,2.9,2.6,5.2v15.6c0,2.3,1.9,4.2,4.2,4.2h10.4c2.3,0,4.2-1.9,4.2-4.2v-1.3
		C21.4,19,21,18.5,20.5,18.5z"/>
</g>
</svg>
