<?xml version="1.0" encoding="utf-8"?>
<!-- Generator: Adobe Illustrator 18.1.1, SVG Export Plug-In . SVG Version: 6.00 Build 0)  -->
<svg version="1.0" id="图层_1" xmlns="http://www.w3.org/2000/svg" xmlns:xlink="http://www.w3.org/1999/xlink" x="0px" y="0px"
	 viewBox="0 0 60 60" enable-background="new 0 0 60 60" xml:space="preserve">
<path fill="#FFFFFF" d="M30,43c-7.2,0-13-5.8-13-13c0-7.2,5.8-13,13-13c7.2,0,13,5.8,13,13C43,37.2,37.2,43,30,43L30,43z M30,39.3
	c1.9,0,3.7-0.6,5.1-1.6L22.3,24.9c-1,1.5-1.6,3.2-1.6,5.1C20.7,35.1,24.9,39.3,30,39.3L30,39.3z M24.9,22.3l12.9,12.9
	c1-1.5,1.5-3.2,1.5-5.1c0-5.1-4.2-9.3-9.3-9.3C30,20.7,28,20.2,24.9,22.3z"/>
</svg>
