<?xml version="1.0" encoding="utf-8"?>
<!-- Generator: Adobe Illustrator 18.1.1, SVG Export Plug-In . SVG Version: 6.00 Build 0)  -->
<svg version="1.1" id="图层_1" xmlns="http://www.w3.org/2000/svg" xmlns:xlink="http://www.w3.org/1999/xlink" x="0px" y="0px"
	 viewBox="23.5 21.2 32.9 37.4" enable-background="new 23.5 21.2 32.9 37.4" xml:space="preserve">
<g>
	<g>
		<path fill="#808080" d="M54.4,26.1h-8v-2.8c0-1.2-0.9-2.1-2.1-2.1h-8.5c-1.2,0-2.1,0.9-2.1,2.1v2.8h-8c-1.2,0-2.1,0.9-2.1,2.1v3.3
			c0,1.2,0.9,2.1,2.1,2.1h1.4v20c0,2.8,2.4,4.9,4.9,4.9h16c2.8,0,4.9-2.4,4.9-4.9v-20h1.4c1.2,0,2.1-0.9,2.1-2.1v-3.3
			C56.5,27.1,55.5,26.1,54.4,26.1z M36,23.5h8v2.6h-8C36,26.1,36,23.5,36,23.5z M50.6,53.9c0,1.4-1.2,2.6-2.6,2.6H32
			c-1.4,0-2.6-1.2-2.6-2.6v-20h21.2V53.9z M54.1,31.3H25.9v-2.8h9.4h0.2H44h0.2h9.4v2.8H54.1z M40,52.7c0.7,0,1.2-0.5,1.2-1.2V37.9
			c0-0.7-0.5-1.2-1.2-1.2c-0.7,0-1.2,0.5-1.2,1.2v13.6C38.8,52.2,39.3,52.7,40,52.7z M46.4,52.7c0.7,0,1.2-0.5,1.2-1.2V37.9
			c0-0.7-0.5-1.2-1.2-1.2c-0.7,0-1.2,0.5-1.2,1.2v13.6C44.9,52.2,45.6,52.7,46.4,52.7z M33.9,52.7c0.7,0,1.2-0.5,1.2-1.2V37.9
			c0-0.7-0.5-1.2-1.2-1.2s-1.2,0.5-1.2,1.2v13.6C32.7,52.2,33.2,52.7,33.9,52.7z"/>
	</g>
</g>
</svg>
