<?xml version="1.0" encoding="utf-8"?>
<!-- Generator: Adobe Illustrator 18.1.1, SVG Export Plug-In . SVG Version: 6.00 Build 0)  -->
<svg version="1.2" baseProfile="tiny" id="图层_1"
	 xmlns="http://www.w3.org/2000/svg" xmlns:xlink="http://www.w3.org/1999/xlink" x="0px" y="0px" viewBox="0 0 44 44"
	 xml:space="preserve">
<path fill="#FF9641" d="M7.2,44c-0.6,0-1-0.4-1-1V23.4H4.4c-1.9,0-3.5-1.2-4.2-2.9c-0.6-1.8-0.1-3.8,1.4-5L19.2,1
	c1.6-1.3,4-1.3,5.6,0l17.5,14.5c1.5,1.2,2,3.2,1.4,5c-0.6,1.8-2.3,2.9-4.2,2.9h-2.7c-0.6,0-1-0.4-1-1s0.4-1,1-1h2.7
	c1.3,0,2-0.8,2.3-1.6c0.3-0.8,0.2-1.9-0.8-2.8L23.5,2.6c-0.9-0.7-2.2-0.7-3.1,0L2.9,17c-1,0.8-1,2-0.8,2.8c0.3,0.8,1,1.6,2.3,1.6
	h2.7c0.6,0,1,0.4,1,1V43C8.2,43.6,7.7,44,7.2,44z"/>
<g>
	<path fill="#FF9641" d="M39.5,29.1h-16c-0.6,0-1-0.4-1-1s0.4-1,1-1h16c0.6,0,1,0.4,1,1S40.1,29.1,39.5,29.1z"/>
	<path fill="#FF9641" d="M39.5,35.4h-16c-0.6,0-1-0.4-1-1s0.4-1,1-1h16c0.6,0,1,0.4,1,1S40.1,35.4,39.5,35.4z"/>
	<path fill="#FF9641" d="M39.5,41.6h-16c-0.6,0-1-0.4-1-1s0.4-1,1-1h16c0.6,0,1,0.4,1,1S40.1,41.6,39.5,41.6z"/>
</g>
</svg>
