<?xml version="1.0" encoding="utf-8"?>
<!-- Generator: Adobe Illustrator 18.1.1, SVG Export Plug-In . SVG Version: 6.00 Build 0)  -->
<svg version="1.2" baseProfile="tiny" id="图层_1"
	 xmlns="http://www.w3.org/2000/svg" xmlns:xlink="http://www.w3.org/1999/xlink" x="0px" y="0px" viewBox="0 0 44 44"
	 xml:space="preserve">
<path fill="#FF9641" d="M29.9,32H14.1c-0.6,0-1-0.4-1-1V20.9H11c-0.4,0-0.8-0.3-1-0.7c-0.1-0.4,0-0.9,0.4-1.1l11-7.9
	c0.3-0.3,0.8-0.3,1.2,0L33.5,19c0.3,0.2,0.5,0.5,0.5,0.9c0,0.6-0.4,1-1,1c0,0,0,0,0,0h-2.1V31C30.9,31.6,30.4,32,29.9,32z M15.1,30
	h13.7V19.9c0-0.6,0.4-1,1-1h0L22,13.2l-7.9,5.7h0.1c0.6,0,1,0.4,1,1V30z"/>
<path fill="#FF9641" d="M22,2c11,0,20,9,20,20c0,11-9,20-20,20S2,33,2,22C2,11,11,2,22,2 M22,0C9.8,0,0,9.8,0,22
	c0,12.2,9.8,22,22,22c12.2,0,22-9.8,22-22C44,9.8,34.2,0,22,0L22,0z"/>
</svg>
