<?xml version="1.0" encoding="utf-8"?>
<!-- Generator: Adobe Illustrator 18.1.1, SVG Export Plug-In . SVG Version: 6.00 Build 0)  -->
<svg version="1.1" id="图层_1" xmlns="http://www.w3.org/2000/svg" xmlns:xlink="http://www.w3.org/1999/xlink" x="0px" y="0px"
	 viewBox="0 0 23 20" enable-background="new 0 0 23 20" xml:space="preserve">
<g>
	<path fill="#00B700" d="M8.4,12.7c-0.1,0.1-0.2,0.1-0.3,0.1c-0.3,0-0.5-0.2-0.7-0.4l0-0.1L5.2,7.7c0,0,0-0.1,0-0.2
		c0-0.2,0.2-0.4,0.4-0.4c0.1,0,0.2,0,0.2,0.1L8.3,9c0.2,0.1,0.4,0.2,0.6,0.2c0.1,0,0.3,0,0.4-0.1L20.9,4c-2.1-2.4-5.5-4-9.4-4
		C5.1,0,0,4.2,0,9.4c0,2.8,1.5,5.4,4,7.1c0.2,0.1,0.3,0.4,0.3,0.6c0,0.1,0,0.2,0,0.2c-0.2,0.7-0.5,1.9-0.5,1.9
		c0,0.1-0.1,0.2-0.1,0.3c0,0.2,0.2,0.4,0.4,0.4c0.1,0,0.2,0,0.2-0.1l2.5-1.4c0.2-0.1,0.4-0.2,0.6-0.2c0.1,0,0.2,0,0.3,0.1
		c1.2,0.3,2.4,0.5,3.8,0.5c6.4,0,11.5-4.2,11.5-9.4c0-1.6-0.5-3.1-1.3-4.4L8.4,12.7L8.4,12.7L8.4,12.7z M8.4,12.7"/>
</g>
</svg>
