<?xml version="1.0" encoding="utf-8"?>
<!-- Generator: Adobe Illustrator 18.1.1, SVG Export Plug-In . SVG Version: 6.00 Build 0)  -->
<svg version="1.1" id="图层_1" xmlns="http://www.w3.org/2000/svg" xmlns:xlink="http://www.w3.org/1999/xlink" x="0px" y="0px"
	 viewBox="0 0 18 18" enable-background="new 0 0 18 18" xml:space="preserve">
<g>
	<path fill="#FFFFFF" d="M17,7.4H1c-0.5,0-1-0.4-1-1s0.4-1,1-1h13L8.8,1.8C8.4,1.4,8.3,0.8,8.6,0.4C8.9,0,9.5-0.1,10,0.2l7.6,5.5
		c0.3,0.2,0.5,0.7,0.4,1.1C17.8,7.2,17.4,7.4,17,7.4z"/>
	<path fill="#FFFFFF" d="M8.6,18c-0.2,0-0.4-0.1-0.6-0.2l-7.6-5.5c-0.3-0.2-0.5-0.7-0.4-1.1c0.1-0.4,0.5-0.7,0.9-0.7h16
		c0.5,0,1,0.4,1,1s-0.4,1-1,1H4l5.2,3.7c0.4,0.3,0.5,0.9,0.2,1.4C9.2,17.9,8.9,18,8.6,18z"/>
</g>
</svg>
