<?xml version="1.0" encoding="utf-8"?>
<!-- Generator: Adobe Illustrator 18.1.1, SVG Export Plug-In . SVG Version: 6.00 Build 0)  -->
<svg version="1.1" id="图层_1" xmlns="http://www.w3.org/2000/svg" xmlns:xlink="http://www.w3.org/1999/xlink" x="0px" y="0px"
	 viewBox="0 0 60 60" enable-background="new 0 0 60 60" xml:space="preserve">
<path fill="#FFFFFF" d="M36.3,36.3c-1.7-0.2-3.3,0.5-4.3,1.8l-4.8-2.7c0.2-0.4,0.3-0.8,0.4-1.3c0.1-1.2-0.2-2.3-0.9-3.2l5.7-6.5
	c0.6,0.3,1.2,0.6,1.9,0.6c3,0.4,5.6-1.8,6-4.9c0.4-3-1.8-5.8-4.7-6.2c-3-0.4-5.6,1.8-6,4.9c-0.2,1.6,0.3,3.1,1.3,4.3l-5.8,6.6
	c-0.3-0.1-0.7-0.2-1.1-0.3c-2.2-0.3-4.3,1.4-4.5,3.7c-0.3,2.3,1.3,4.4,3.6,4.7c1.1,0.1,2.1-0.2,2.9-0.8l5.2,2.9
	c-0.1,0.2-0.1,0.4-0.1,0.6c-0.3,2.7,1.5,5.1,4.1,5.4c2.6,0.3,5-1.6,5.3-4.3C40.8,39,38.9,36.6,36.3,36.3L36.3,36.3z"/>
</svg>
