<?xml version="1.0" encoding="utf-8"?>
<!-- Generator: Adobe Illustrator 18.1.1, SVG Export Plug-In . SVG Version: 6.00 Build 0)  -->
<svg version="1.1" baseProfile="basic" id="图层_1"
	 xmlns="http://www.w3.org/2000/svg" xmlns:xlink="http://www.w3.org/1999/xlink" x="0px" y="0px" viewBox="0 0 56 56"
	 xml:space="preserve">
<g>
	<path fill="#FFFFFF" d="M41.6,29h-1.2v5.4h-2.7V29h-7.3c-0.8,0-1.4,0.6-1.4,1.4v11.2c0,0.8,0.6,1.4,1.4,1.4h1.3v-7.8h2.7v2H43v-6.7
		C43,29.6,42.4,29,41.6,29z M34.4,43h2.9v-3.1h-2.9V43z M40,43h1.6c0.8,0,1.4-0.6,1.4-1.4v-1.7h-3V43z M25.6,29H14.4
		c-0.8,0-1.4,0.6-1.4,1.4v11.2c0,0.8,0.6,1.4,1.4,1.4h11.2c0.8,0,1.4-0.6,1.4-1.4V30.4C27,29.6,26.4,29,25.6,29z M24.3,40.3h-8.6
		v-8.6h8.6V40.3z M20,37.8c1,0,1.8-0.8,1.8-1.8S21,34.2,20,34.2S18.2,35,18.2,36S19,37.8,20,37.8z M25.6,13H14.4
		c-0.8,0-1.4,0.6-1.4,1.4v11.2c0,0.8,0.6,1.4,1.4,1.4h11.2c0.8,0,1.4-0.6,1.4-1.4V14.4C27,13.6,26.4,13,25.6,13z M24.3,24.3h-8.6
		v-8.6h8.6V24.3z M20,21.8c1,0,1.8-0.8,1.8-1.8S21,18.2,20,18.2S18.2,19,18.2,20S19,21.8,20,21.8z M41.6,13H30.4
		c-0.8,0-1.4,0.6-1.4,1.4v11.2c0,0.8,0.6,1.4,1.4,1.4h11.2c0.8,0,1.4-0.6,1.4-1.4V14.4C43,13.6,42.4,13,41.6,13z M40.3,24.3h-8.6
		v-8.6h8.6V24.3z M36,21.8c1,0,1.8-0.8,1.8-1.8S37,18.2,36,18.2S34.2,19,34.2,20S35,21.8,36,21.8z"/>
</g>
</svg>
