<?xml version="1.0" encoding="utf-8"?>
<!-- Generator: Adobe Illustrator 18.1.1, SVG Export Plug-In . SVG Version: 6.00 Build 0)  -->
<svg version="1.1" id="图层_1" xmlns="http://www.w3.org/2000/svg" xmlns:xlink="http://www.w3.org/1999/xlink" x="0px" y="0px"
	 viewBox="25 33.5 50 33" enable-background="new 25 33.5 50 33" xml:space="preserve">
<path fill-rule="evenodd" clip-rule="evenodd" fill="#02AFF3" d="M74.9,60.5c0.5,1.5-0.9,3-2.5,2.8c-1.7-0.3-3.7-0.5-5.8-0.6
	c0,0,0-0.1,0-0.1c-0.7-2.3-1.9-4.5-3.6-6.4c-1.1-1.2-2.4-2.3-3.9-3.2c0.8-0.8,1.5-1.8,2.1-2.8c1-1.8,1.5-3.8,1.5-5.8
	c0-2.7-0.9-5.2-2.4-7.3c0.8-0.2,1.7-0.4,2.6-0.4c4.9,0,8.9,3.9,8.9,8.8c0,3-1.5,5.6-3.8,7.2C71.3,54.1,73.8,57,74.9,60.5z
	 M56.5,53.3c4.2,1.8,7.4,5.4,8.7,9.7c0.6,1.9-1.1,3.8-3.1,3.4c-3.2-0.5-7.4-0.9-12-0.9s-8.7,0.3-12,0.9c-2,0.3-3.7-1.5-3.1-3.4
	c1.3-4.4,4.5-7.9,8.7-9.7c-2.8-2-4.7-5.2-4.7-8.9c0-6,4.9-10.9,11-10.9s11,4.9,11,10.9C61.1,48.1,59.3,51.3,56.5,53.3z M39,50.2
	c0.5,1,1.2,2,2.1,2.8c-1.4,0.9-2.8,2-3.9,3.2c-1.6,1.8-2.9,4-3.6,6.4c0,0,0,0.1,0,0.1c-2.2,0.1-4.3,0.3-6,0.6
	c-1.6,0.3-3-1.2-2.5-2.8c1.1-3.5,3.7-6.4,7-7.9c-2.3-1.6-3.8-4.2-3.8-7.2c0-4.8,4-8.8,8.9-8.8c1,0,1.9,0.2,2.7,0.4
	c-1.6,2.1-2.4,4.6-2.4,7.3C37.6,46.4,38.1,48.4,39,50.2z"/>
</svg>
