<?xml version="1.0" encoding="utf-8"?>
<!-- Generator: Adobe Illustrator 18.1.1, SVG Export Plug-In . SVG Version: 6.00 Build 0)  -->
<svg version="1.1" id="图层_1" xmlns="http://www.w3.org/2000/svg" xmlns:xlink="http://www.w3.org/1999/xlink" x="0px" y="0px"
	 viewBox="27.5 27 45 45" enable-background="new 27.5 27 45 45" xml:space="preserve">
<g>
	<g>
		<path fill="#FF9641" d="M67.5,27h-35c-2.8,0-5,2.2-5,5v35c0,2.8,2.2,5,5,5h35c2.8,0,5-2.2,5-5V32C72.5,29.2,70.3,27,67.5,27z
			 M37.5,59.1c-1.7,0.1-3.3,0.2-4.6,0.5c-1.2,0.2-2.2-0.9-1.9-2.1c0.8-2.7,2.8-4.8,5.3-6c-1.7-1.2-2.9-3.2-2.9-5.4
			c0-3.7,3-6.7,6.8-6.7c0.7,0,1.4,0.1,2.1,0.3c-1.2,1.6-1.8,3.5-1.8,5.5c0,1.5,0.4,3,1.1,4.4c0.4,0.8,0.9,1.5,1.6,2.1
			c-1.1,0.7-2.1,1.5-2.9,2.4C39,55.6,38.1,57.3,37.5,59.1C37.5,59.1,37.5,59.1,37.5,59.1z M59.2,62c-2.5-0.4-5.6-0.6-9.1-0.6
			c-3.5,0-6.6,0.2-9.1,0.6c-1.5,0.3-2.8-1.2-2.3-2.6c1-3.3,3.4-6,6.6-7.4c-2.1-1.5-3.6-4-3.6-6.7c0-4.6,3.8-8.2,8.4-8.2
			c4.6,0,8.4,3.7,8.4,8.2c0,2.8-1.4,5.2-3.6,6.7c3.2,1.4,5.6,4.1,6.6,7.4C62,60.8,60.7,62.2,59.2,62z M67,59.6
			c-1.3-0.2-2.8-0.4-4.4-0.4c0,0,0,0,0-0.1c-0.5-1.8-1.5-3.5-2.7-4.8c-0.8-0.9-1.8-1.8-2.9-2.4c0.6-0.6,1.1-1.3,1.6-2.1
			c0.7-1.3,1.1-2.9,1.1-4.4c0-2-0.6-4-1.9-5.6c0.6-0.2,1.3-0.3,2-0.3c3.7,0,6.8,3,6.8,6.7c0,2.2-1.1,4.2-2.9,5.4
			c2.6,1.1,4.5,3.3,5.3,6C69.3,58.6,68.3,59.8,67,59.6z"/>
	</g>
</g>
</svg>
