<?xml version="1.0" encoding="utf-8"?>
<!-- Generator: Adobe Illustrator 18.1.1, SVG Export Plug-In . SVG Version: 6.00 Build 0)  -->
<svg version="1.1" id="图层_1" xmlns="http://www.w3.org/2000/svg" xmlns:xlink="http://www.w3.org/1999/xlink" x="0px" y="0px"
	 viewBox="23.8 21.2 32.7 37.9" enable-background="new 23.8 21.2 32.7 37.9" xml:space="preserve">
<g>
	<path fill="#808080" d="M43.8,50.8H30.1c-0.5,0-0.9,0.5-0.9,0.9c0,0.5,0.5,0.9,0.9,0.9h13.6c0.5,0,0.9-0.5,0.9-0.9
		C44.9,51.3,44.5,50.8,43.8,50.8z M43.8,44.9H30.1c-0.5,0-0.9,0.5-0.9,0.9c0,0.5,0.5,0.9,0.9,0.9h13.6c0.5,0,0.9-0.5,0.9-0.9
		C44.9,45.4,44.5,44.9,43.8,44.9z M43.8,33.2H30.1c-0.5,0-0.9,0.5-0.9,0.9s0.5,0.9,0.9,0.9h13.6c0.5,0,0.9-0.5,0.9-0.9
		S44.5,33.2,43.8,33.2z M53.6,21.2H32.2c-1.6,0-2.8,1.4-2.8,3.1v3.1h-2.8c-1.6,0-2.8,1.4-2.8,3.1V56c0,1.6,1.4,3.1,2.8,3.1H48
		c1.6,0,2.8-1.4,2.8-3.1v-3.1h2.8c1.6,0,2.8-1.4,2.8-3.1V24.2C56.5,22.6,55.3,21.2,53.6,21.2z M48.7,54.8c0,1.2-0.9,1.9-1.9,1.9
		H27.5c-1.2,0-1.9-0.9-1.9-1.9V31.1c0-1.2,0.9-1.9,1.9-1.9h19.3c1.2,0,1.9,0.9,1.9,1.9V54.8z M54.6,48.9c0,1.2-0.9,1.9-1.9,1.9h-1.9
		V30.1c0-1.6-1.4-3.1-2.8-3.1H31.5v-1.9c0-1.2,0.9-1.9,1.9-1.9h19.3c1.2,0,1.9,0.9,1.9,1.9V48.9z M43.8,39.1H30.1
		c-0.5,0-0.9,0.5-0.9,0.9c0,0.5,0.5,0.9,0.9,0.9h13.6c0.5,0,0.9-0.5,0.9-0.9C44.9,39.5,44.5,39.1,43.8,39.1z"/>
</g>
</svg>
