<?xml version="1.0" encoding="utf-8"?>
<!-- Generator: Adobe Illustrator 18.1.1, SVG Export Plug-In . SVG Version: 6.00 Build 0)  -->
<svg version="1.1" id="图层_1" xmlns="http://www.w3.org/2000/svg" xmlns:xlink="http://www.w3.org/1999/xlink" x="0px" y="0px"
	 viewBox="0 0 16 16" enable-background="new 0 0 16 16" xml:space="preserve">
<g>
	<path fill="#FF9641" d="M5.7,9.5C5,8.8,4.9,8.1,5.3,7.2c-0.2,0-0.4,0-0.6,0C3.9,7.2,3.2,7,2.5,6.5C1,5.4,0.3,2.8,2.4,1.1
		C3.3,0.4,4.3,0,5.4,0C7,0,8.5,0,10.1,0c0.1,0,0.1,0,0.2,0c0,0,0,0,0,0c-0.1,0.1-0.2,0.1-0.3,0.2C9.5,0.5,9,0.6,8.4,0.5
		c-0.2,0-0.4,0-0.7,0c0.1,0.1,0.1,0.1,0.2,0.2C8.3,1.1,8.7,1.6,9,2.1c0.6,1.2,0.3,2.7-0.6,3.7C8.2,6,8,6.2,7.8,6.3
		C7.6,6.5,7.3,6.7,7.2,6.9c-0.3,0.3-0.3,0.8,0,1.2c0.3,0.4,0.7,0.7,1.1,1c0.3,0.2,0.5,0.4,0.7,0.6c0.7,0.6,1,1.4,1,2.3
		c0.1,1.6-0.8,2.7-2.2,3.4C7.1,15.8,6.4,16,5.6,16c-1.3,0.1-2.5-0.1-3.7-0.6c-0.4-0.2-0.8-0.4-1.1-0.7C0,14-0.2,13,0.2,12
		c0.4-0.8,1-1.4,1.8-1.8c0.9-0.5,1.8-0.7,2.8-0.7C5.1,9.5,5.4,9.5,5.7,9.5z M5.2,15.2c0.4,0,0.7-0.1,1.1-0.1
		c0.6-0.1,1.1-0.3,1.6-0.6c0.9-0.7,1.3-2.5,0.1-3.4c-0.4-0.3-0.8-0.6-1.2-0.8c-0.1-0.1-0.2-0.1-0.3-0.1C5.8,10,5.2,9.9,4.6,10.1
		c-0.8,0.2-1.6,0.5-2.2,1.1C2,11.6,1.8,12,1.8,12.5c0,0.8,0.3,1.4,0.9,1.9C3.4,15,4.3,15.2,5.2,15.2z M7.5,4.3c0-0.2,0-0.4-0.1-0.6
		c-0.2-1-0.6-1.8-1.4-2.4C5.7,0.9,5.3,0.7,4.8,0.7C4,0.7,3.3,1.2,3,2C2.7,2.9,2.8,3.8,3.2,4.7C3.5,5.5,4,6.1,4.8,6.5
		c1,0.5,1.9,0.1,2.4-0.8C7.4,5.3,7.5,4.8,7.5,4.3z"/>
	<path fill-rule="evenodd" clip-rule="evenodd" fill="#FF9641" d="M15.8,8h-2.3v2.3c0,0.1-0.1,0.2-0.2,0.2h-0.6
		c-0.1,0-0.2-0.1-0.2-0.2V8h-2.3C10.1,8,10,7.9,10,7.8V7.2C10,7.1,10.1,7,10.2,7h2.3V4.7c0-0.1,0.1-0.2,0.2-0.2h0.6
		c0.1,0,0.2,0.1,0.2,0.2V7h2.3C15.9,7,16,7.1,16,7.2v0.6C16,7.9,15.9,8,15.8,8z"/>
</g>
</svg>
