<?xml version="1.0" encoding="utf-8"?>
<!-- Generator: Adobe Illustrator 18.1.1, SVG Export Plug-In . SVG Version: 6.00 Build 0)  -->
<svg version="1.1" id="图层_1" xmlns="http://www.w3.org/2000/svg" xmlns:xlink="http://www.w3.org/1999/xlink" x="0px" y="0px"
	 viewBox="22.5 22.7 34.7 34.7" enable-background="new 22.5 22.7 34.7 34.7" xml:space="preserve">
<path fill="#FFFFFF" d="M50.8,26.7c-0.4-0.3-0.8-0.5-1.3-0.5c-0.7,0-1.3,0.3-1.7,0.8c-0.4,0.4-0.5,1.1-0.5,1.6
	c0,0.5,0.4,1.1,0.8,1.5c3.1,2.5,4.9,6.1,4.9,10.1c0,3.5-1.3,6.7-3.9,9.2c-2.4,2.4-5.7,3.7-9.2,3.7s-6.7-1.3-9.2-3.7
	c-2.4-2.4-3.9-5.7-3.9-9.2c0-4,1.7-7.6,4.9-10.1c0.4-0.4,0.8-0.9,0.8-1.5s-0.1-1.2-0.4-1.6c-0.4-0.5-1.1-0.8-1.7-0.8l0,0
	c-0.5,0-0.9,0.1-1.3,0.5c-2,1.6-3.6,3.6-4.8,5.9c-1.2,2.4-1.7,4.9-1.7,7.6c0,4.7,1.9,8.9,5.1,12.1c3.3,3.2,7.6,5.1,12.3,5.1
	s8.9-1.7,12.3-5.1c3.3-3.2,5.1-7.6,5.1-12.1C57.3,34.8,54.9,29.9,50.8,26.7L50.8,26.7z M40,43.2c1.2,0,2.3-0.8,2.3-2V24.9
	c0-1.2-1.1-2.3-2.3-2.3s-2.1,1.1-2.1,2.3v16.3C37.9,42.4,38.8,43.2,40,43.2L40,43.2z"/>
</svg>
