<?xml version="1.0" encoding="utf-8"?>
<!-- Generator: Adobe Illustrator 18.1.1, SVG Export Plug-In . SVG Version: 6.00 Build 0)  -->
<svg version="1.1" id="图层_1" xmlns="http://www.w3.org/2000/svg" xmlns:xlink="http://www.w3.org/1999/xlink" x="0px" y="0px"
	 viewBox="0 0 72 72" enable-background="new 0 0 72 72" xml:space="preserve">
<g>
	<g>
		<path fill-rule="evenodd" clip-rule="evenodd" fill="#FF9641" d="M52.6,22.9c2-2.2,3.5-4.9,4.5-8h-9.7
			C48.5,17.9,50.2,20.5,52.6,22.9z M26.4,28.6l-6.8,18.8h13.8l-6.7-18.8H26.4z M62,0H10C4.5,0,0,4.5,0,10v52c0,5.5,4.5,10,10,10h52
			c5.5,0,10-4.5,10-10V10C72,4.5,67.5,0,62,0z M41.9,64c-1.5,0-2.8-0.9-3.3-2.3l-3.1-8.5h-18l-3.1,8.5c-0.5,1.4-1.8,2.3-3.3,2.3
			c-2.4,0-4.1-2.5-3.3-4.7l13.2-34.5c0.9-2.3,3-3.7,5.4-3.7s4.6,1.5,5.4,3.7l13.2,34.5C46,61.5,44.3,64,41.9,64z M63.9,13.5
			c0,0.7-0.6,1.3-1.3,1.3H60c-1.2,3.8-3,7.1-5.4,9.7c2.3,1.8,5.1,3.4,8.4,4.7c0.8,0.3,1.1,1.3,0.6,2l0,0c-0.3,0.5-1,0.8-1.6,0.5
			c-3.7-1.5-6.8-3.2-9.3-5.3c-2.7,2.4-5.9,4.1-9.7,5.3c-0.6,0.2-1.2-0.1-1.5-0.6c-0.4-0.7-0.1-1.7,0.7-2c3.4-1.1,6.3-2.6,8.6-4.5
			c-2.8-2.8-4.7-6.1-5.8-9.8h-2.6c-0.7,0-1.3-0.6-1.3-1.3v0c0-0.7,0.6-1.3,1.3-1.3h8.9c-0.4-0.7-0.8-1.3-1.2-1.9
			c-0.5-0.7-0.2-1.7,0.6-2l0,0c0.6-0.2,1.2,0,1.6,0.5c0.7,1,1.3,2.2,1.9,3.5h8.4C63.3,12.2,63.9,12.8,63.9,13.5L63.9,13.5z"/>
	</g>
</g>
</svg>
