<?xml version="1.0" encoding="utf-8"?>
<!-- Generator: Adobe Illustrator 18.1.1, SVG Export Plug-In . SVG Version: 6.00 Build 0)  -->
<svg version="1.1" id="图层_1" xmlns="http://www.w3.org/2000/svg" xmlns:xlink="http://www.w3.org/1999/xlink" x="0px" y="0px"
	 viewBox="0 0 24 24" enable-background="new 0 0 24 24" xml:space="preserve">
<g>
	<path fill="#B2B2B2" d="M23.4,9.5l-3.2-2.6c0-0.1,0-0.1,0-0.2V3.1c0-0.9-0.7-1.7-1.7-1.7h-1.3c-0.9,0-1.7,0.7-1.7,1.7v0.1L13,1
		c-0.6-0.5-1.6-0.5-2.2,0L0.7,9.2c-0.8,0.6-0.9,1.7-0.3,2.5c0.6,0.8,1.7,0.9,2.5,0.3l9.1-7.3l9.2,7.6c0.8,0.6,1.9,0.5,2.5-0.2
		C24.2,11.2,24.1,10.1,23.4,9.5L23.4,9.5z M3.4,12.5v9.2c0,0.9,0.7,1.7,1.7,1.7h13.6c0.9,0,1.7-0.7,1.7-1.7v-9l-8.5-6.7L3.4,12.5
		L3.4,12.5z M3.4,12.5"/>
</g>
</svg>
