<?xml version="1.0" encoding="utf-8"?>
<!-- Generator: Adobe Illustrator 18.1.1, SVG Export Plug-In . SVG Version: 6.00 Build 0)  -->
<svg version="1.1" id="图层_1" xmlns="http://www.w3.org/2000/svg" xmlns:xlink="http://www.w3.org/1999/xlink" x="0px" y="0px"
	 viewBox="0 0 18 18" enable-background="new 0 0 18 18" xml:space="preserve">
<path fill="#B3B3B3" d="M17,16.1c0.3,1.1-0.5,2.1-1.6,1.9c-1.7-0.3-4-0.5-6.4-0.5S4.3,17.7,2.6,18c-1.1,0.2-2-0.8-1.6-1.9
	c0.7-2.3,2.4-4.3,4.7-5.3C4.1,9.7,3.2,7.9,3.2,5.9C3.2,2.7,5.8,0,9,0s5.9,2.7,5.9,5.9c0,2-1,3.8-2.5,4.9
	C14.6,11.8,16.4,13.7,17,16.1z"/>
</svg>
