<?xml version="1.0" encoding="utf-8"?>
<!-- Generator: Adobe Illustrator 18.1.1, SVG Export Plug-In . SVG Version: 6.00 Build 0)  -->
<svg version="1.1" id="图层_1" xmlns="http://www.w3.org/2000/svg" xmlns:xlink="http://www.w3.org/1999/xlink" x="0px" y="0px"
	 viewBox="0 0 19 15" enable-background="new 0 0 19 15" xml:space="preserve">
<g>
	<path fill="#FF9641" d="M19,1.8c-0.7,0.3-1.5,0.5-2.2,0.6c0.8-0.5,1.4-1.2,1.7-2.1C17.7,0.7,16.9,1,16,1.2C15.3,0.5,14.3,0,13.2,0
		C11,0,9.3,1.7,9.3,3.8c0,0.3,0,0.6,0.1,0.9c-3.2-0.2-6.1-1.7-8-4C1,1.3,0.8,1.9,0.8,2.6c0,1.3,0.7,2.5,1.7,3.2
		c-0.6,0-1.2-0.2-1.8-0.5c0,0,0,0,0,0c0,1.8,1.3,3.4,3.1,3.7c-0.3,0.1-0.7,0.1-1,0.1c-0.3,0-0.5,0-0.7-0.1c0.5,1.5,1.9,2.6,3.6,2.6
		c-1.3,1-3,1.6-4.8,1.6c-0.3,0-0.6,0-0.9-0.1C1.7,14.4,3.8,15,6,15c7.2,0,11.1-5.8,11.1-10.8c0-0.2,0-0.3,0-0.5
		C17.8,3.2,18.5,2.5,19,1.8z"/>
</g>
</svg>
