<?xml version="1.0" encoding="utf-8"?>
<!-- Generator: Adobe Illustrator 18.1.1, SVG Export Plug-In . SVG Version: 6.00 Build 0)  -->
<svg version="1.1" id="图层_1" xmlns="http://www.w3.org/2000/svg" xmlns:xlink="http://www.w3.org/1999/xlink" x="0px" y="0px"
	 viewBox="0 0 22 22" enable-background="new 0 0 22 22" xml:space="preserve">
<g>
	<path fill="#1CB5FC" d="M4.5,13.6c-0.4,3.3,5.3,1.7,7-0.5C10.2,12.4,4.9,10.9,4.5,13.6z"/>
	<path fill="#1CB5FC" d="M11,0C4.9,0,0,4.9,0,11s4.9,11,11,11s11-4.9,11-11S17.1,0,11,0z M18.3,16.2c-2.6-1.2-5.5-2.5-5.5-2.5
		c-2.1,2.9-5.2,3-5.2,3c-3,0.2-5.1-2.2-3.3-4.5c1.9-2.4,8-0.2,8-0.2c0.5-0.8,0.9-2.5,0.9-2.5H6.7V9h3.4V7.7h-4V7.3h4V5.3h1.7v1.9h4
		v0.5h-4V9h3.2c-0.2,1.7-1.3,3.5-1.3,3.5c1.5,0.4,4.6,1.6,4.6,1.6V16.2z"/>
</g>
</svg>
