<?xml version="1.0" encoding="utf-8"?>
<!-- Generator: Adobe Illustrator 18.1.1, SVG Export Plug-In . SVG Version: 6.00 Build 0)  -->
<svg version="1.1" id="图层_1" xmlns="http://www.w3.org/2000/svg" xmlns:xlink="http://www.w3.org/1999/xlink" x="0px" y="0px"
	 viewBox="0 0 16 16" enable-background="new 0 0 16 16" xml:space="preserve">
<g>
	<path fill="#FF9641" d="M8.6,16H1.4C0.6,16,0,15.4,0,14.6c0-4.4,0-8.7,0-13.1C0,0.6,0.6,0,1.4,0c4.4,0,8.7,0,13.1,0
		C15.4,0,16,0.6,16,1.4c0,4.4,0,8.7,0,13.1c0,0.8-0.6,1.4-1.4,1.4c-1.2,0-2.4,0-3.5,0V9.8h2.1c0.1-0.8,0.2-1.6,0.3-2.4H11
		c0-0.6,0-1.2,0-1.8c0-0.4,0.4-0.8,0.8-0.9c0.5-0.1,1,0,1.5,0c0.1,0,0.2,0,0.2,0V2.5c-0.8,0-1.6,0-2.4,0C9.7,2.6,8.7,3.6,8.6,5.1
		c0,0.7,0,1.4,0,2.1c0,0.1,0,0.1,0,0.2H6.5v2.4h2.1V16z"/>
</g>
</svg>
