<?xml version="1.0" encoding="utf-8"?>
<!-- Generator: Adobe Illustrator 18.1.1, SVG Export Plug-In . SVG Version: 6.00 Build 0)  -->
<svg version="1.1" baseProfile="tiny" id="图层_1"
	 xmlns="http://www.w3.org/2000/svg" xmlns:xlink="http://www.w3.org/1999/xlink" x="0px" y="0px" viewBox="0 0 26 26"
	 xml:space="preserve">
<path fill-rule="evenodd" fill="#FF9641" d="M24,22.8c0.4,1.4-0.8,2.8-2.2,2.6c-2.4-0.4-5.4-0.6-8.7-0.6c-3.3,0-6.4,0.2-8.7,0.6
	c-1.5,0.2-2.7-1.1-2.2-2.6c1-3.3,3.3-5.9,6.3-7.3C6.3,14,5,11.5,5,8.8c0-4.5,3.6-8.1,8-8.1c4.4,0,8,3.6,8,8.1c0,2.8-1.3,5.2-3.4,6.7
	C20.7,16.8,23,19.5,24,22.8z"/>
</svg>
