<?xml version="1.0" encoding="utf-8"?>
<!-- Generator: Adobe Illustrator 18.1.1, SVG Export Plug-In . SVG Version: 6.00 Build 0)  -->
<svg version="1.1" id="图层_1" xmlns="http://www.w3.org/2000/svg" xmlns:xlink="http://www.w3.org/1999/xlink" x="0px" y="0px"
	 viewBox="0 0 34 34" enable-background="new 0 0 34 34" xml:space="preserve">
<g>
	<g>
		<path fill="#808080" d="M23.1,11.1h-3.4V9.9c0-0.5-0.4-0.9-0.9-0.9h-3.6c-0.5,0-0.9,0.4-0.9,0.9v1.2h-3.4c-0.5,0-0.9,0.4-0.9,0.9
			v1.4c0,0.5,0.4,0.9,0.9,0.9h0.6v8.5c0,1.2,1,2.1,2.1,2.1h6.8c1.2,0,2.1-1,2.1-2.1v-8.5h0.6c0.5,0,0.9-0.4,0.9-0.9V12
			C24,11.5,23.6,11.1,23.1,11.1z M15.3,10h3.4v1.1h-3.4C15.3,11.1,15.3,10,15.3,10z M21.5,22.9c0,0.6-0.5,1.1-1.1,1.1h-6.8
			c-0.6,0-1.1-0.5-1.1-1.1v-8.5h9V22.9z M23,13.3H11v-1.2h4h0.1h3.6h0.1h4v1.2H23z M17,22.4c0.3,0,0.5-0.2,0.5-0.5v-5.8
			c0-0.3-0.2-0.5-0.5-0.5s-0.5,0.2-0.5,0.5v5.8C16.5,22.2,16.7,22.4,17,22.4z M19.7,22.4c0.3,0,0.5-0.2,0.5-0.5v-5.8
			c0-0.3-0.2-0.5-0.5-0.5s-0.5,0.2-0.5,0.5v5.8C19.1,22.2,19.4,22.4,19.7,22.4z M14.4,22.4c0.3,0,0.5-0.2,0.5-0.5v-5.8
			c0-0.3-0.2-0.5-0.5-0.5s-0.5,0.2-0.5,0.5v5.8C13.9,22.2,14.1,22.4,14.4,22.4z"/>
	</g>
</g>
</svg>
