<?xml version="1.0" encoding="utf-8"?>
<!-- Generator: Adobe Illustrator 18.1.1, SVG Export Plug-In . SVG Version: 6.00 Build 0)  -->
<svg version="1.2" baseProfile="tiny" id="图层_1"
	 xmlns="http://www.w3.org/2000/svg" xmlns:xlink="http://www.w3.org/1999/xlink" x="0px" y="0px" viewBox="0 0 24 24"
	 xml:space="preserve">
<path fill-rule="evenodd" fill="#B2B2B2" d="M19,23H5c-1.7,0-3-1.3-3-3v-6.3c0-1.6,1.2-2.8,2.8-3c0-0.1,0-0.2,0-0.3V8.3
	C4.7,4.3,8,1,12,1c4,0,7.3,3.3,7.3,7.3v2.2c0,0.1,0,0.2,0,0.3c1.5,0.1,2.8,1.4,2.8,3V20C22,21.7,20.7,23,19,23z M12,21.2
	c1.5,0,2.7-1.2,2.7-2.6c0-1.1-0.8-2.1-1.8-2.5V13h-1.8v3.1c-1.1,0.4-1.8,1.3-1.8,2.5C9.3,20.1,10.5,21.2,12,21.2z M16.5,8.2
	c0-2.5-2-4.5-4.5-4.5c-2.5,0-4.5,2-4.5,4.5v2.3c0,0,0,0.1,0,0.1h9.1c0,0,0-0.1,0-0.1V8.2z"/>
</svg>
