<?xml version="1.0" encoding="utf-8"?>
<!-- Generator: Adobe Illustrator 18.1.1, SVG Export Plug-In . SVG Version: 6.00 Build 0)  -->
<svg version="1.1" id="图层_1" xmlns="http://www.w3.org/2000/svg" xmlns:xlink="http://www.w3.org/1999/xlink" x="0px" y="0px"
	 viewBox="0 0 30 30" enable-background="new 0 0 30 30" xml:space="preserve">
<g>
	<path fill="none" stroke="#FF9641" stroke-width="2" stroke-linecap="round" stroke-linejoin="round" stroke-miterlimit="10" d="
		M29,16.5V26c0,1.6-1.4,3-3,3H4c-1.7,0-3-1.4-3-3V6.1c0-1.7,1.3-3,3-3h6"/>
	<path fill="none" stroke="#FF9641" stroke-width="2" stroke-linecap="round" stroke-linejoin="round" stroke-miterlimit="10" d="
		M8.2,22.4c1.6-9.3,10-16.8,19.9-16.8"/>
	
		<polyline fill="none" stroke="#FF9641" stroke-width="2" stroke-linecap="round" stroke-linejoin="round" stroke-miterlimit="10" points="
		21.4,1 28.8,5.7 22.8,11.4 	"/>
</g>
<g>
	<path fill="#FF9641" d="M66.1,31.7h-22c-2.2,0-4-1.8-4-4V7.9c0-2.2,1.8-4,4-4h6c0.6,0,1,0.4,1,1s-0.4,1-1,1h-6c-1.1,0-2,0.9-2,2
		v19.9c0,1.1,0.9,2,2,2h22c1.1,0,2-0.9,2-2v-9.5c0-0.6,0.4-1,1-1s1,0.4,1,1v9.5C70.1,29.9,68.3,31.7,66.1,31.7z"/>
	<path fill="#FF9641" d="M48.3,25.1c-0.1,0-0.1,0-0.2,0c-0.5-0.1-0.9-0.6-0.8-1.2C49,13.9,58,6.3,68.2,6.3c0.6,0,1,0.4,1,1
		s-0.4,1-1,1c-9.3,0-17.4,6.9-18.9,16C49.2,24.8,48.8,25.1,48.3,25.1z"/>
	<path fill="#FF9641" d="M62.9,14.2c-0.3,0-0.5-0.1-0.7-0.3c-0.4-0.4-0.4-1,0-1.4l5.1-4.9l-6.3-4c-0.5-0.3-0.6-0.9-0.3-1.4
		c0.3-0.5,0.9-0.6,1.4-0.3l7.4,4.7c0.3,0.2,0.4,0.4,0.5,0.7c0,0.3-0.1,0.6-0.3,0.8l-6,5.7C63.4,14.1,63.2,14.2,62.9,14.2z"/>
</g>
</svg>
