<?xml version="1.0" encoding="utf-8"?>
<!-- Generator: Adobe Illustrator 18.1.1, SVG Export Plug-In . SVG Version: 6.00 Build 0)  -->
<svg version="1.1" baseProfile="tiny" id="图层_1"
	 xmlns="http://www.w3.org/2000/svg" xmlns:xlink="http://www.w3.org/1999/xlink" x="0px" y="0px" viewBox="0 0 18 18"
	 xml:space="preserve">
<path fill="#E32600" d="M9,0C4,0,0,4,0,9c0,5,4,9,9,9s9-4,9-9C18,4,14,0,9,0z M9,15.4c-1.1,0-1.7-0.5-1.8-1.3c0-1,0.7-1.5,1.8-1.5
	c1.1,0,1.7,0.6,1.8,1.5C10.6,14.9,10,15.4,9,15.4z M10.4,6c-0.5,1.7-0.8,3.6-1,5.8h-1C8.3,9.4,8,7.5,7.6,6C7.3,5.1,7.1,4.4,7.1,3.8
	C7.1,3,7.7,2.6,9,2.6c1.2,0,1.8,0.4,1.8,1.2C10.9,4.2,10.7,4.9,10.4,6z"/>
</svg>
