<?xml version="1.0" encoding="utf-8"?>
<!-- Generator: Adobe Illustrator 18.1.1, SVG Export Plug-In . SVG Version: 6.00 Build 0)  -->
<svg version="1.2" baseProfile="tiny" id="图层_1"
	 xmlns="http://www.w3.org/2000/svg" xmlns:xlink="http://www.w3.org/1999/xlink" x="0px" y="0px" viewBox="0 0 26 26"
	 xml:space="preserve">
<path fill="#FFFFFF" d="M20.5,18.5c0,0-0.6-0.9-0.8-1.2c-0.2-0.3-1.2-1.5-2.8-2.2c-1.1-0.5-2.8-0.6-3.7-0.6c-0.3,0-0.5,0.2-0.5,0.5
	v2.4l-7.2-4.9l7.2-4.9V10c0,0.3,0.2,0.5,0.5,0.5c0.6,0.1,1.6,0.1,2.2,0.3c1.5,0.3,2.4,1,2.4,1c0.9,0.5,2,1.9,2.4,3.6
	C20.6,17,20.5,18.5,20.5,18.5L20.5,18.5z M20.5,18.5"/>
</svg>
