<?xml version="1.0" encoding="utf-8"?>
<!-- Generator: Adobe Illustrator 18.1.1, SVG Export Plug-In . SVG Version: 6.00 Build 0)  -->
<svg version="1.1" id="图层_1" xmlns="http://www.w3.org/2000/svg" xmlns:xlink="http://www.w3.org/1999/xlink" x="0px" y="0px"
	 viewBox="0 0 24 24" enable-background="new 0 0 24 24" xml:space="preserve">
<g>
	<g>
		<path fill-rule="evenodd" clip-rule="evenodd" fill="#B2B2B2" d="M19.1,0H4.9C3.9,0,3,0.9,3,1.9v20.2C3,23.1,3.9,24,4.9,24h14.2
			c1.1,0,1.9-0.9,1.9-1.9V1.9C21,0.9,20.1,0,19.1,0z M11.8,22.7c-0.7,0-1.3-0.6-1.3-1.3s0.6-1.3,1.3-1.3c0.7,0,1.3,0.6,1.3,1.3
			S12.5,22.7,11.8,22.7z M18.2,17.4c0,0.6-0.5,1.1-1.1,1.1H7c-0.6,0-1.1-0.5-1.1-1.1V4c0-0.6,0.5-1.1,1.1-1.1H17
			c0.6,0,1.1,0.5,1.1,1.1V17.4z"/>
	</g>
</g>
</svg>
