<?xml version="1.0" encoding="utf-8"?>
<!-- Generator: Adobe Illustrator 18.1.1, SVG Export Plug-In . SVG Version: 6.00 Build 0)  -->
<svg version="1.1" baseProfile="tiny" id="图层_1"
	 xmlns="http://www.w3.org/2000/svg" xmlns:xlink="http://www.w3.org/1999/xlink" x="0px" y="0px" viewBox="0 0 18 18"
	 xml:space="preserve">
<g>
	<path fill="#FF9641" d="M17.2,9.6h-0.7v3.3h-1.6V9.6h-4.4c-0.5,0-0.8,0.4-0.8,0.8v6.7c0,0.5,0.4,0.8,0.8,0.8h0.8v-4.7h1.6v1.2H18
		v-4C18,10,17.6,9.6,17.2,9.6z M12.8,18h1.7v-1.9h-1.7V18z M16.2,18h0.9c0.5,0,0.8-0.4,0.8-0.8v-1h-1.8V18z M7.6,9.6H0.8
		C0.4,9.6,0,10,0,10.4v6.7C0,17.6,0.4,18,0.8,18h6.7c0.5,0,0.8-0.4,0.8-0.8v-6.7C8.4,10,8,9.6,7.6,9.6z M6.8,16.4H1.6v-5.1h5.1V16.4
		z M4.2,14.9c0.6,0,1.1-0.5,1.1-1.1c0-0.6-0.5-1.1-1.1-1.1c-0.6,0-1.1,0.5-1.1,1.1C3.1,14.4,3.6,14.9,4.2,14.9z M7.6,0H0.8
		C0.4,0,0,0.4,0,0.8v6.7C0,8,0.4,8.4,0.8,8.4h6.7C8,8.4,8.4,8,8.4,7.6V0.8C8.4,0.4,8,0,7.6,0z M6.8,6.8H1.6V1.6h5.1V6.8z M4.2,5.3
		c0.6,0,1.1-0.5,1.1-1.1c0-0.6-0.5-1.1-1.1-1.1c-0.6,0-1.1,0.5-1.1,1.1C3.1,4.8,3.6,5.3,4.2,5.3z M17.2,0h-6.7C10,0,9.6,0.4,9.6,0.8
		v6.7c0,0.5,0.4,0.8,0.8,0.8h6.7C17.6,8.4,18,8,18,7.6V0.8C18,0.4,17.6,0,17.2,0z M16.4,6.8h-5.1V1.6h5.1V6.8z M13.8,5.3
		c0.6,0,1.1-0.5,1.1-1.1c0-0.6-0.5-1.1-1.1-1.1c-0.6,0-1.1,0.5-1.1,1.1C12.7,4.8,13.2,5.3,13.8,5.3z"/>
</g>
</svg>
