<?xml version="1.0" encoding="utf-8"?>
<!-- Generator: Adobe Illustrator 18.1.1, SVG Export Plug-In . SVG Version: 6.00 Build 0)  -->
<svg version="1.1" id="图层_1" xmlns="http://www.w3.org/2000/svg" xmlns:xlink="http://www.w3.org/1999/xlink" x="0px" y="0px"
	 viewBox="0 0 38 38" enable-background="new 0 0 38 38" xml:space="preserve">
<g>
	<path fill="#FF9641" d="M14,18H4c-2.2,0-4-1.8-4-4V4c0-2.2,1.8-4,4-4h10c2.2,0,4,1.8,4,4v10C18,16.2,16.2,18,14,18z M4,2
		C2.9,2,2,2.9,2,4v10c0,1.1,0.9,2,2,2h10c1.1,0,2-0.9,2-2V4c0-1.1-0.9-2-2-2H4z"/>
	<path fill="#FF9641" d="M14,38H4c-2.2,0-4-1.8-4-4V24c0-2.2,1.8-4,4-4h10c2.2,0,4,1.8,4,4v10C18,36.2,16.2,38,14,38z M4,22
		c-1.1,0-2,0.9-2,2v10c0,1.1,0.9,2,2,2h10c1.1,0,2-0.9,2-2V24c0-1.1-0.9-2-2-2H4z"/>
	<path fill="#FF9641" d="M34,38H24c-2.2,0-4-1.8-4-4V24c0-2.2,1.8-4,4-4h10c2.2,0,4,1.8,4,4v10C38,36.2,36.2,38,34,38z M24,22
		c-1.1,0-2,0.9-2,2v10c0,1.1,0.9,2,2,2h10c1.1,0,2-0.9,2-2V24c0-1.1-0.9-2-2-2H24z"/>
	<path fill="#FF9641" d="M29,18c-1.1,0-2.1-0.4-2.8-1.2l-5-5C20.4,11.1,20,10.1,20,9s0.4-2.1,1.2-2.8l5-5C26.9,0.4,27.9,0,29,0
		s2.1,0.4,2.8,1.2l5,5C37.6,6.9,38,7.9,38,9s-0.4,2.1-1.2,2.8l-5,5C31.1,17.6,30.1,18,29,18z M29,2c-0.5,0-1,0.2-1.4,0.6l-5,5
		C22.2,8,22,8.5,22,9s0.2,1,0.6,1.4l5,5c0.8,0.8,2.1,0.8,2.8,0l5-5C35.8,10,36,9.5,36,9s-0.2-1-0.6-1.4l-5-5C30,2.2,29.5,2,29,2z"/>
</g>
</svg>
