<?xml version="1.0" encoding="utf-8"?>
<!-- Generator: Adobe Illustrator 18.1.1, SVG Export Plug-In . SVG Version: 6.00 Build 0)  -->
<svg version="1.1" baseProfile="tiny" id="图层_1"
	 xmlns="http://www.w3.org/2000/svg" xmlns:xlink="http://www.w3.org/1999/xlink" x="0px" y="0px" viewBox="0 0 34 34"
	 xml:space="preserve">
<g>
	<path fill="#808080" d="M18.6,21.6h-5.8c-0.2,0-0.4,0.2-0.4,0.4c0,0.2,0.2,0.4,0.4,0.4h5.8c0.2,0,0.4-0.2,0.4-0.4
		C19.1,21.8,18.9,21.6,18.6,21.6z M18.6,19.1h-5.8c-0.2,0-0.4,0.2-0.4,0.4c0,0.2,0.2,0.4,0.4,0.4h5.8c0.2,0,0.4-0.2,0.4-0.4
		C19.1,19.3,18.9,19.1,18.6,19.1z M18.6,14.1h-5.8c-0.2,0-0.4,0.2-0.4,0.4s0.2,0.4,0.4,0.4h5.8c0.2,0,0.4-0.2,0.4-0.4
		S18.9,14.1,18.6,14.1z M22.8,9h-9.1c-0.7,0-1.2,0.6-1.2,1.3v1.3h-1.2c-0.7,0-1.2,0.6-1.2,1.3v10.9c0,0.7,0.6,1.3,1.2,1.3h9.1
		c0.7,0,1.2-0.6,1.2-1.3v-1.3h1.2c0.7,0,1.2-0.6,1.2-1.3V10.3C24,9.6,23.5,9,22.8,9z M20.7,23.3c0,0.5-0.4,0.8-0.8,0.8h-8.2
		c-0.5,0-0.8-0.4-0.8-0.8V13.2c0-0.5,0.4-0.8,0.8-0.8h8.2c0.5,0,0.8,0.4,0.8,0.8V23.3z M23.2,20.8c0,0.5-0.4,0.8-0.8,0.8h-0.8v-8.8
		c0-0.7-0.6-1.3-1.2-1.3h-7v-0.8c0-0.5,0.4-0.8,0.8-0.8h8.2c0.5,0,0.8,0.4,0.8,0.8V20.8z M18.6,16.6h-5.8c-0.2,0-0.4,0.2-0.4,0.4
		c0,0.2,0.2,0.4,0.4,0.4h5.8c0.2,0,0.4-0.2,0.4-0.4C19.1,16.8,18.9,16.6,18.6,16.6z"/>
</g>
</svg>
