<?xml version="1.0" encoding="utf-8"?>
<!-- Generator: Adobe Illustrator 18.1.1, SVG Export Plug-In . SVG Version: 6.00 Build 0)  -->
<svg version="1.1" id="图层_1" xmlns="http://www.w3.org/2000/svg" xmlns:xlink="http://www.w3.org/1999/xlink" x="0px" y="0px"
	 viewBox="0 0 70 70" enable-background="new 0 0 70 70" xml:space="preserve">
<g>
	<g>
		<path fill="#FFFFFF" d="M30.2,20.8c-1.1-2.8-3.8-4.7-6.8-4.7c-3,0-5.7,1.9-6.8,4.7L0.3,64.1c-1.1,2.9,1,5.9,4.1,5.9
			c1.8,0,3.5-1.2,4.1-2.9l3.8-10.6h22.4l3.8,10.6c0.6,1.7,2.3,2.9,4.1,2.9c3,0,5.2-3.1,4.1-5.9L30.2,20.8z M14.9,49.3l8.5-23.6h0.3
			l8.4,23.6H14.9z M68.4,8.5c0.9,0,1.7-0.7,1.7-1.7v0c0-0.9-0.7-1.7-1.7-1.7H57.9c-0.7-1.6-1.5-3.1-2.4-4.3c-0.4-0.6-1.2-0.9-2-0.7
			l0,0c-1,0.4-1.4,1.7-0.8,2.6c0.6,0.8,1.1,1.6,1.5,2.4H43.2c-0.9,0-1.7,0.7-1.7,1.7v0c0,0.9,0.7,1.7,1.7,1.7h3.2
			c1.4,4.7,3.8,8.8,7.2,12.3c-2.9,2.4-6.4,4.3-10.7,5.6c-1,0.3-1.5,1.5-0.9,2.4v0c0.4,0.7,1.2,1,1.9,0.7c4.7-1.5,8.7-3.7,12-6.7
			c3.1,2.6,7,4.8,11.6,6.7c0.7,0.3,1.6,0,2-0.6l0,0c0.6-0.9,0.2-2.1-0.7-2.4c-4.1-1.7-7.6-3.7-10.5-5.9c3-3.3,5.2-7.3,6.8-12.1H68.4
			z M56,18.5c-3-2.9-5.1-6.3-6.4-10h12.1C60.4,12.3,58.6,15.7,56,18.5z"/>
	</g>
</g>
</svg>
