<?xml version="1.0" encoding="utf-8"?>
<!-- Generator: Adobe Illustrator 18.1.1, SVG Export Plug-In . SVG Version: 6.00 Build 0)  -->
<svg version="1.2" baseProfile="tiny" id="图层_1"
	 xmlns="http://www.w3.org/2000/svg" xmlns:xlink="http://www.w3.org/1999/xlink" x="0px" y="0px" viewBox="0 0 44 44"
	 xml:space="preserve">
<g>
	<g>
		<path fill="#FF9641" d="M21.3,25.2c-6.9,0-12.6-5.7-12.6-12.6S14.4,0,21.3,0c6.9,0,12.6,5.7,12.6,12.6S28.2,25.2,21.3,25.2z
			 M21.3,2c-5.8,0-10.6,4.8-10.6,10.6s4.8,10.6,10.6,10.6s10.6-4.8,10.6-10.6S27.1,2,21.3,2z"/>
		<path fill="#FF9641" d="M2.4,44c-0.6,0-1-0.4-1-1c0-10.9,8.9-19.8,19.8-19.8c0.6,0,1,0.4,1,1s-0.4,1-1,1c-9.8,0-17.8,8-17.8,17.8
			C3.4,43.6,3,44,2.4,44z"/>
	</g>
	<g>
		<path fill="#FF9641" d="M32.8,44c-5.3,0-9.7-4.4-9.7-9.7s4.4-9.7,9.7-9.7s9.7,4.4,9.7,9.7S38.1,44,32.8,44z M32.8,26.6
			c-4.2,0-7.7,3.5-7.7,7.7s3.5,7.7,7.7,7.7s7.7-3.5,7.7-7.7S37,26.6,32.8,26.6z"/>
		<path fill="#FF9641" d="M32.2,35.9c-0.6,0-1-0.4-1-1v-5c0-0.6,0.4-1,1-1s1,0.4,1,1v5C33.2,35.5,32.8,35.9,32.2,35.9z"/>
		<path fill="#FF9641" d="M37,35.9h-4.8c-0.6,0-1-0.4-1-1s0.4-1,1-1H37c0.6,0,1,0.4,1,1S37.6,35.9,37,35.9z"/>
	</g>
</g>
</svg>
