<?xml version="1.0" encoding="utf-8"?>
<!-- Generator: Adobe Illustrator 18.1.1, SVG Export Plug-In . SVG Version: 6.00 Build 0)  -->
<svg version="1.1" id="图层_1" xmlns="http://www.w3.org/2000/svg" xmlns:xlink="http://www.w3.org/1999/xlink" x="0px" y="0px"
	 viewBox="0 0 26 26" enable-background="new 0 0 26 26" xml:space="preserve">
<g>
	<path fill-rule="evenodd" clip-rule="evenodd" fill="#FFFFFF" d="M22.4,26H3.7c-2,0-3.7-1.6-3.7-3.5v-16c0-2,1.6-3.5,3.7-3.5h1.7
		c0.2,0,0.4,0.2,0.4,0.4v1.2c0,1.1,0.9,2,2,2c1.1,0,2.1-0.9,2.1-2V3.3c0-0.2,0.2-0.4,0.4-0.4h5.5c0.2,0,0.4,0.2,0.4,0.4v1.2
		c0,1.1,0.9,2,2,2c1.1,0,2.1-0.9,2.1-2V3.3c0-0.2,0.2-0.4,0.4-0.4h1.7c2,0,3.7,1.6,3.7,3.5v16C26,24.4,24.4,26,22.4,26z M23.5,10
		c0-0.2-0.2-0.4-0.4-0.4H2.9c-0.2,0-0.4,0.2-0.4,0.4v12c0,0.9,0.7,1.6,1.6,1.6h17.8c0.9,0,1.6-0.7,1.6-1.6V10z"/>
	<path fill-rule="evenodd" clip-rule="evenodd" fill="#FFFFFF" d="M7.8,0C8.5,0,9,0.5,9,1.2v3.3c0,0.7-0.6,1.2-1.2,1.2
		S6.6,5.2,6.6,4.5V1.2C6.6,0.5,7.1,0,7.8,0z"/>
	<path fill-rule="evenodd" clip-rule="evenodd" fill="#FFFFFF" d="M18.2,0c0.7,0,1.2,0.5,1.2,1.2v3.3c0,0.7-0.6,1.2-1.2,1.2
		c-0.7,0-1.2-0.5-1.2-1.2V1.2C17,0.5,17.5,0,18.2,0z"/>
	<path fill="#FFFFFF" d="M11.4,22.1c-0.3,0-0.6-0.1-0.9-0.4l-5.3-5.2c-0.5-0.5-0.5-1.2,0-1.7c0.5-0.5,1.3-0.5,1.7,0l4.4,4.3l7.6-7.6
		c0.5-0.5,1.3-0.5,1.7,0c0.5,0.5,0.5,1.2,0,1.7l-8.5,8.5C12.1,21.9,11.8,22.1,11.4,22.1C11.4,22.1,11.4,22.1,11.4,22.1z"/>
</g>
</svg>
