<?xml version="1.0" encoding="utf-8"?>
<!-- Generator: Adobe Illustrator 18.1.1, SVG Export Plug-In . SVG Version: 6.00 Build 0)  -->
<svg version="1.2" baseProfile="tiny" id="图层_1"
	 xmlns="http://www.w3.org/2000/svg" xmlns:xlink="http://www.w3.org/1999/xlink" x="0px" y="0px" viewBox="0 0 40 40"
	 xml:space="preserve">
<g>
	<path fill-rule="evenodd" fill="#FF9641" d="M10.1,19.9v7.6c0,0.3,0.2,0.5,0.5,0.5h12.4c0.3,0,0.5-0.2,0.5-0.5v-7.4l-6.8-5.2
		L10.1,19.9z"/>
	<path fill-rule="evenodd" fill="#FF9641" d="M23.8,15.3c-0.3-0.2-0.4-0.6-0.4-0.9c0,0,0,0,0-0.1v-3.2c0-0.3-0.2-0.5-0.5-0.5h-1.2
		c-0.3,0-0.5,0.2-0.5,0.5v0.1c0,0.4-0.2,0.7-0.6,0.9c-0.1,0.1-0.3,0.1-0.4,0.1c-0.2,0-0.4-0.1-0.6-0.2l-2.3-1.8
		C17.2,10,17.1,10,16.9,10c-0.1,0-0.3,0-0.4,0.1l-9.3,7.2c-0.1,0.1-0.2,0.2-0.2,0.4c0,0.1,0,0.2,0.1,0.4c0.1,0.1,0.3,0.2,0.5,0.2
		c0.1,0,0.3,0,0.4-0.1l8.3-6.4c0.2-0.1,0.4-0.2,0.6-0.2c0.2,0,0.4,0.1,0.6,0.2l8.4,6.7c0.1,0.1,0.3,0.1,0.4,0.1
		c0.2,0,0.4-0.1,0.5-0.2C27,18.2,27,18.1,27,18c0-0.1-0.1-0.3-0.2-0.4L23.8,15.3z"/>
	<path fill-rule="evenodd" fill="#FF9641" d="M20,0C9,0,0,9,0,20c0,11,9,20,20,20c11,0,20-9,20-20C40,9,31,0,20,0z M24.6,27.5
		c0,0.8-0.7,1.5-1.5,1.5H10.7c-0.8,0-1.5-0.7-1.5-1.5v-8.1l7.7-5.8l7.7,5.9V27.5z M27.6,19c-0.3,0.4-0.8,0.6-1.2,0.6
		c-0.4,0-0.7-0.1-1-0.4l-8.4-6.7l-8.3,6.4c-0.3,0.2-0.7,0.3-1,0.3c-0.5,0-0.9-0.2-1.3-0.6C5.8,18,6,17.1,6.6,16.5l9.3-7.2
		c0.3-0.2,0.6-0.3,1-0.3c0.4,0,0.7,0.1,1,0.4l2.3,1.8v-0.1c0-0.8,0.7-1.5,1.5-1.5H23c0.8,0,1.5,0.7,1.5,1.5v3.2c0,0.1,0,0.1,0,0.2
		l2.9,2.3C28.1,17.4,28.2,18.3,27.6,19z M34.5,23H32v2.5c0,0.3-0.2,0.5-0.5,0.5c-0.3,0-0.5-0.2-0.5-0.5V23h-2.5
		c-0.3,0-0.5-0.2-0.5-0.5c0-0.3,0.2-0.5,0.5-0.5H31v-2.5c0-0.3,0.2-0.5,0.5-0.5c0.3,0,0.5,0.2,0.5,0.5V22h2.5c0.3,0,0.5,0.2,0.5,0.5
		C35,22.8,34.8,23,34.5,23z"/>
</g>
</svg>
