<?xml version="1.0" encoding="utf-8"?>
<!-- Generator: Adobe Illustrator 18.1.1, SVG Export Plug-In . SVG Version: 6.00 Build 0)  -->
<svg version="1.1" id="图层_1" xmlns="http://www.w3.org/2000/svg" xmlns:xlink="http://www.w3.org/1999/xlink" x="0px" y="0px"
	 viewBox="21.2 21.2 37.9 37.6" enable-background="new 21.2 21.2 37.9 37.6" xml:space="preserve">
<g>
	<path fill="#808080" d="M44.5,23.5c0.7,0,1.4,0.7,1.4,1.4v3.3c0,0.7-0.7,1.4-1.4,1.4H24.9c-0.7,0-1.4-0.7-1.4-1.4v-3.3
		c0-0.7,0.7-1.4,1.4-1.4H44.5 M44.5,21.2H24.9c-2.1,0-3.8,1.6-3.8,3.8v3.3c0,2.1,1.6,3.8,3.8,3.8h19.5c2.1,0,3.8-1.6,3.8-3.8v-3.3
		C48.2,22.8,46.6,21.2,44.5,21.2L44.5,21.2z"/>
	<path fill="#808080" d="M49.9,36.9c0.7,0,1.4,0.7,1.4,1.4v3.3c0,0.7-0.7,1.4-1.4,1.4H24.9c-0.7,0-1.4-0.7-1.4-1.4v-3.3
		c0-0.7,0.7-1.4,1.4-1.4H49.9 M49.9,34.6H24.9c-2.1,0-3.8,1.6-3.8,3.8v3.3c0,2.1,1.6,3.8,3.8,3.8h24.9c2.1,0,3.8-1.6,3.8-3.8v-3.3
		C53.4,36.2,51.8,34.6,49.9,34.6L49.9,34.6z"/>
	<path fill="#808080" d="M55.1,50.6c0.7,0,1.4,0.7,1.4,1.4v3.3c0,0.7-0.7,1.4-1.4,1.4H24.9c-0.7,0-1.4-0.7-1.4-1.4v-3.5
		c0-0.7,0.7-1.4,1.4-1.4h30.1 M55.1,48.2H24.9c-2.1,0-3.8,1.6-3.8,3.5v3.3c0,2.1,1.6,3.8,3.8,3.8h30.4c2.1,0,3.8-1.6,3.8-3.8v-3.3
		C58.8,49.9,57.2,48.2,55.1,48.2L55.1,48.2z"/>
</g>
</svg>
