<?xml version="1.0" encoding="utf-8"?>
<!-- Generator: Adobe Illustrator 18.1.1, SVG Export Plug-In . SVG Version: 6.00 Build 0)  -->
<svg version="1.1" baseProfile="basic" id="图层_1"
	 xmlns="http://www.w3.org/2000/svg" xmlns:xlink="http://www.w3.org/1999/xlink" x="0px" y="0px" viewBox="0 0 34 34"
	 xml:space="preserve">
<g>
	<path fill="#808080" d="M18.9,10c0.3,0,0.6,0.3,0.6,0.6V12c0,0.3-0.3,0.6-0.6,0.6h-8.3c-0.3,0-0.6-0.3-0.6-0.6v-1.4
		c0-0.3,0.3-0.6,0.6-0.6H18.9 M18.9,9h-8.3C9.7,9,9,9.7,9,10.6V12c0,0.9,0.7,1.6,1.6,1.6h8.3c0.9,0,1.6-0.7,1.6-1.6v-1.4
		C20.5,9.7,19.8,9,18.9,9L18.9,9z"/>
	<path fill="#808080" d="M21.2,15.7c0.3,0,0.6,0.3,0.6,0.6v1.4c0,0.3-0.3,0.6-0.6,0.6H10.6c-0.3,0-0.6-0.3-0.6-0.6v-1.4
		c0-0.3,0.3-0.6,0.6-0.6H21.2 M21.2,14.7H10.6c-0.9,0-1.6,0.7-1.6,1.6v1.4c0,0.9,0.7,1.6,1.6,1.6h10.6c0.9,0,1.6-0.7,1.6-1.6v-1.4
		C22.7,15.4,22,14.7,21.2,14.7L21.2,14.7z"/>
	<path fill="#808080" d="M23.4,21.5c0.3,0,0.6,0.3,0.6,0.6v1.4c0,0.3-0.3,0.6-0.6,0.6H10.6c-0.3,0-0.6-0.3-0.6-0.6V22
		c0-0.3,0.3-0.6,0.6-0.6H23.4 M23.4,20.5H10.6C9.7,20.5,9,21.2,9,22v1.4c0,0.9,0.7,1.6,1.6,1.6h12.9c0.9,0,1.6-0.7,1.6-1.6V22
		C25,21.2,24.3,20.5,23.4,20.5L23.4,20.5z"/>
</g>
</svg>
