<?xml version="1.0" encoding="utf-8"?>
<!-- Generator: Adobe Illustrator 18.1.1, SVG Export Plug-In . SVG Version: 6.00 Build 0)  -->
<svg version="1.0" id="图层_1" xmlns="http://www.w3.org/2000/svg" xmlns:xlink="http://www.w3.org/1999/xlink" x="0px" y="0px"
	 viewBox="0 0 18 18" enable-background="new 0 0 18 18" xml:space="preserve">
<g>
	<path fill="#7F7F7F" d="M12.9,4.4h-1c0-1.6-1.3-2.9-2.9-2.9c-1.6,0-2.9,1.3-2.9,2.9h-1c0-2.1,1.7-3.9,3.9-3.9S12.9,2.2,12.9,4.4z"
		/>
	<rect x="0.6" y="7.4" fill="#7F7F7F" width="16.9" height="1"/>
	<path fill="#7F7F7F" d="M9,11.1c-1.5,0-2.8-1.2-2.8-2.7h1c0,1,0.8,1.7,1.8,1.7s1.8-0.8,1.8-1.7h1C11.8,9.9,10.5,11.1,9,11.1z"/>
	<path fill="#7F7F7F" d="M17,4.4v12H1v-12H17 M17.4,3.4H0.6C0.3,3.4,0,3.7,0,4v12.9c0,0.3,0.3,0.6,0.6,0.6h16.9
		c0.3,0,0.6-0.3,0.6-0.6V4C18,3.7,17.7,3.4,17.4,3.4L17.4,3.4z"/>
</g>
</svg>
