<?xml version="1.0" encoding="utf-8"?>
<!-- Generator: Adobe Illustrator 18.1.1, SVG Export Plug-In . SVG Version: 6.00 Build 0)  -->
<svg version="1.1" baseProfile="tiny" id="图层_1"
	 xmlns="http://www.w3.org/2000/svg" xmlns:xlink="http://www.w3.org/1999/xlink" x="0px" y="0px" viewBox="0 0 18 18"
	 xml:space="preserve">
<g>
	<path fill="#808080" d="M5.1,10.2H3.6v1.6h1.5V10.2z M6.7,11.7h1.5v-1.6H6.7V11.7z M9.8,11.7h1.5v-1.6H9.8V11.7z M12.9,11.7h1.5
		v-1.6h-1.5V11.7z M8.2,7H6.7v1.6h1.5V7z M11.3,7H9.8v1.6h1.5V7z M14.4,7h-1.5v1.6h1.5V7z M3.6,14.9h1.5v-1.6H3.6V14.9z M6.7,14.9
		h1.5v-1.6H6.7V14.9z M9.8,14.9h1.5v-1.6H9.8V14.9z M12.9,14.9h1.5v-1.6h-1.5V14.9z M16,16.1c0,0.2-0.1,0.3-0.3,0.3H2.3
		c-0.2,0-0.3-0.1-0.3-0.3V6.3H0.5v11.2C0.5,17.8,0.7,18,1,18h16c0.3,0,0.5-0.2,0.5-0.5V6.3H16V16.1z M17,1.6h-1.8V0h-1.5v3.1h-0.8
		V1.6H5.1V0H3.6v3.1H2.8V1.6H1c-0.3,0-0.5,0.2-0.5,0.5v3.4h17V2.1C17.5,1.8,17.3,1.6,17,1.6z"/>
</g>
</svg>
