<?xml version="1.0" encoding="utf-8"?>
<!-- Generator: Adobe Illustrator 18.1.1, SVG Export Plug-In . SVG Version: 6.00 Build 0)  -->
<svg version="1.1" baseProfile="tiny" id="图层_1"
	 xmlns="http://www.w3.org/2000/svg" xmlns:xlink="http://www.w3.org/1999/xlink" x="0px" y="0px" viewBox="0 0 18 18"
	 xml:space="preserve">
<g>
	<path fill="#FF9641" d="M12.3,18c-0.3,0-0.5-0.2-0.5-0.5v-6.9c0-0.3,0.2-0.5,0.5-0.5s0.5,0.2,0.5,0.5v6.9
		C12.8,17.8,12.6,18,12.3,18z"/>
	<path fill="#FF9641" d="M15.6,14.4H8.7c-0.3,0-0.5-0.2-0.5-0.5s0.2-0.5,0.5-0.5h6.8c0.3,0,0.5,0.2,0.5,0.5S15.8,14.4,15.6,14.4z"/>
	<path fill="#FF9641" d="M9,18H4.3c-1.3,0-2.4-1.1-2.4-2.4V2.4C1.9,1.1,3,0,4.3,0h9.3c1.3,0,2.4,1.1,2.4,2.4V9
		c0,0.3-0.2,0.5-0.5,0.5S15.1,9.3,15.1,9V2.4c0-0.8-0.6-1.4-1.4-1.4H4.3C3.6,1,2.9,1.6,2.9,2.4v13.2c0,0.8,0.6,1.4,1.4,1.4H9
		c0.3,0,0.5,0.2,0.5,0.5S9.3,18,9,18z"/>
</g>
</svg>
