<?xml version="1.0" encoding="utf-8"?>
<!-- Generator: Adobe Illustrator 18.1.1, SVG Export Plug-In . SVG Version: 6.00 Build 0)  -->
<svg version="1.1" baseProfile="tiny" id="图层_1"
	 xmlns="http://www.w3.org/2000/svg" xmlns:xlink="http://www.w3.org/1999/xlink" x="0px" y="0px" viewBox="0 0 18 18"
	 xml:space="preserve">
<g>
	<g>
		<path fill="none" stroke="#FF9641" stroke-linecap="round" stroke-linejoin="round" stroke-miterlimit="10" d="M17.5,5.9
			c-0.2-0.5-0.7-0.8-1.2-0.7c-0.5,0.1-0.9,0.5-0.9,1.1c0,0.3,0.1,0.5,0.4,0.7c-0.1,0-0.1,0.1-0.1,0.1c-1,0.6-2,1.2-3,1.8
			C12.3,9,12.2,9,12.1,8.7c-0.7-1.2-1.3-2.3-2-3.5C9.9,4.9,9.6,4.4,9.4,4c0.7-0.5,0.9-1.1,0.4-1.6C9.4,1.9,8.7,1.9,8.3,2.3
			C8,2.5,7.9,2.8,7.9,3.1C8,3.5,8.2,3.8,8.6,4C7.7,5.6,6.8,7.2,5.9,8.8C5.8,9,5.7,9,5.5,8.9C5.2,8.7,4.9,8.6,4.6,8.4
			C3.8,7.9,3.1,7.5,2.3,7c0,0,0.1-0.1,0.1-0.1c0.3-0.3,0.3-0.8,0.1-1.1c-0.2-0.4-0.6-0.6-1-0.6c-0.4,0-0.8,0.3-1,0.7
			c0,0.1,0,0.1-0.1,0.2v0.4c0,0.1,0.1,0.2,0.1,0.3c0.2,0.4,0.6,0.6,1,0.6C1.8,7.7,1.9,8.1,2,8.5c0.5,1.6,1,3.2,1.4,4.8
			c0.1,0.3,0.2,0.3,0.5,0.3c3.4,0,6.8,0,10.2,0c0.3,0,0.4-0.1,0.4-0.3c0.6-2,1.2-3.9,1.8-5.9c0-0.1,0-0.1,0.1-0.2
			c0.6,0,1-0.3,1.1-0.8V6C17.5,6,17.5,6,17.5,5.9z"/>
	</g>
	<path fill="#FF9641" d="M14.4,16H3.6C3.3,16,3,15.7,3,15.3v0c0-0.4,0.3-0.6,0.6-0.6h10.7c0.4,0,0.6,0.3,0.6,0.6v0
		C15,15.7,14.7,16,14.4,16z"/>
</g>
</svg>
