<?xml version="1.0" encoding="utf-8"?>
<!-- Generator: Adobe Illustrator 18.1.1, SVG Export Plug-In . SVG Version: 6.00 Build 0)  -->
<svg version="1.1" baseProfile="tiny" id="图层_1"
	 xmlns="http://www.w3.org/2000/svg" xmlns:xlink="http://www.w3.org/1999/xlink" x="0px" y="0px" viewBox="0 0 20 20"
	 xml:space="preserve">
<path fill-rule="evenodd" fill="#FFFFFF" d="M17.9,20H2.1c-1.1,0-2-0.9-2-2V3.9c0-1.1,0.9-2,2-2h0.8c0,0,0,0,0,0v1
	c0,1,0.8,1.9,1.9,1.9h0c1,0,1.9-0.8,1.9-1.9v-1c0,0,0,0,0,0h5.7c0,0,0,0,0,0v1c0,1,0.8,1.9,1.9,1.9h0c1,0,1.9-0.8,1.9-1.9v-1
	c0,0,0,0,0,0h1.8c1.1,0,2,0.9,2,2V18C19.9,19.1,19,20,17.9,20z M17.7,6.7H2.3C2.1,6.7,2,6.8,2,7v10.8c0,0.2,0.1,0.3,0.3,0.3h15.5
	c0.2,0,0.3-0.1,0.3-0.3V7C18,6.8,17.9,6.7,17.7,6.7z M6.4,11.5H4.2c-0.2,0-0.3-0.1-0.3-0.3V8.9c0-0.2,0.1-0.3,0.3-0.3h2.2
	c0.2,0,0.3,0.1,0.3,0.3v2.3C6.7,11.3,6.5,11.5,6.4,11.5z M6.4,16.2H4.2c-0.2,0-0.3-0.1-0.3-0.3v-2.3c0-0.2,0.1-0.3,0.3-0.3h2.2
	c0.2,0,0.3,0.1,0.3,0.3v2.3C6.7,16,6.5,16.2,6.4,16.2z M11.1,11.5H8.9c-0.2,0-0.3-0.1-0.3-0.3V8.9c0-0.2,0.1-0.3,0.3-0.3h2.3
	c0.2,0,0.3,0.1,0.3,0.3v2.3C11.4,11.3,11.3,11.5,11.1,11.5z M11.1,16.2H8.9c-0.2,0-0.3-0.1-0.3-0.3v-2.3c0-0.2,0.1-0.3,0.3-0.3h2.3
	c0.2,0,0.3,0.1,0.3,0.3v2.3C11.4,16,11.3,16.2,11.1,16.2z M15.8,11.5h-2.2c-0.2,0-0.3-0.1-0.3-0.3V8.9c0-0.2,0.1-0.3,0.3-0.3h2.2
	c0.2,0,0.3,0.1,0.3,0.3v2.3C16.1,11.3,16,11.5,15.8,11.5z M15.8,16.2h-2.2c-0.2,0-0.3-0.1-0.3-0.3v-2.3c0-0.2,0.1-0.3,0.3-0.3h2.2
	c0.2,0,0.3,0.1,0.3,0.3v2.3C16.1,16,16,16.2,15.8,16.2z M14.3,2.9L14.3,2.9c-0.5,0-0.9-0.4-0.9-0.9v-1c0-0.5,0.4-0.9,0.9-0.9h0
	c0.5,0,0.9,0.4,0.9,0.9v1C15.2,2.4,14.8,2.9,14.3,2.9z M4.8,2.9L4.8,2.9c-0.5,0-0.9-0.4-0.9-0.9v-1C3.9,0.4,4.3,0,4.8,0h0
	c0.5,0,0.9,0.4,0.9,0.9v1C5.7,2.4,5.3,2.9,4.8,2.9z"/>
</svg>
