<?xml version="1.0" encoding="utf-8"?>
<!-- Generator: Adobe Illustrator 18.1.1, SVG Export Plug-In . SVG Version: 6.00 Build 0)  -->
<svg version="1.1" baseProfile="tiny" id="图层_1"
	 xmlns="http://www.w3.org/2000/svg" xmlns:xlink="http://www.w3.org/1999/xlink" x="0px" y="0px" viewBox="0 0 34 34"
	 xml:space="preserve">
<path fill="#FFFFFF" d="M24.9,27H9.1C7.9,27,7,26.1,7,25V11.2c0-1.1,0.9-2,2.1-2h3.1v1.4H9.4c-0.6,0-1,0.5-1,1v13c0,0.6,0.5,1,1,1
	h15.2c0.6,0,1-0.5,1-1v-13c0-0.6-0.5-1-1-1h-2.8V9.2h3.1c1.1,0,2.1,0.9,2.1,2V25C27,26.1,26.1,27,24.9,27L24.9,27L24.9,27L24.9,27z
	 M13.4,18.2c0.1-0.1,0.2-0.1,0.3-0.1l2.7,2.7l0-13.6c0-0.1,0.1-0.3,0.3-0.3l0.9,0c0.1,0,0.3,0.1,0.3,0.3l0,13.6l2.7-2.7
	c0,0,0.2,0,0.3,0.1l0.7,0.7c0.1,0.1,0.1,0.2,0.1,0.3l-3.8,3.8v0c0,0,0,0,0,0c-0.1,0.2-0.3,0.3-0.6,0.2l-0.3,0
	c-0.2,0-0.4-0.1-0.5-0.2l0,0v0l-3.7-3.8c0,0,0-0.2,0.1-0.3L13.4,18.2L13.4,18.2L13.4,18.2L13.4,18.2z M13.4,18.2"/>
</svg>
