<?xml version="1.0" encoding="utf-8"?>
<!-- Generator: Adobe Illustrator 18.1.1, SVG Export Plug-In . SVG Version: 6.00 Build 0)  -->
<svg version="1.1" baseProfile="tiny" id="图层_1"
	 xmlns="http://www.w3.org/2000/svg" xmlns:xlink="http://www.w3.org/1999/xlink" x="0px" y="0px" viewBox="0 0 18 18"
	 xml:space="preserve">
<path fill="#DC4437" d="M13.1,2.2c-3-3-7.9-3-10.9,0c-3,3-3,7.8-0.1,10.8c2.8,2.9,7.3,3.1,10.4,0.6l1,1l-1.1,1.1
	c-0.3,0.3-0.3,0.8,0,1.2l0,0c0.3,0.3,0.8,0.3,1.2,0l1.1-1.1l1.9,1.9c0.3,0.3,0.8,0.3,1.2,0l0,0c0.3-0.3,0.3-0.8,0-1.2l-1.9-1.9
	l1.1-1.1c0.3-0.3,0.3-0.8,0-1.2h0c-0.3-0.3-0.8-0.3-1.2,0l-1.1,1.1l-1-1C16.1,9.5,15.9,5.1,13.1,2.2L13.1,2.2z M3.4,12
	C1,9.6,1,5.8,3.4,3.4C5.8,1,9.6,1,12,3.4c2.4,2.4,2.4,6.2,0,8.6C9.6,14.3,5.8,14.3,3.4,12L3.4,12z"/>
</svg>
