<?xml version="1.0" encoding="utf-8"?>
<!-- Generator: Adobe Illustrator 18.1.1, SVG Export Plug-In . SVG Version: 6.00 Build 0)  -->
<svg version="1.1" id="图层_1" xmlns="http://www.w3.org/2000/svg" xmlns:xlink="http://www.w3.org/1999/xlink" x="0px" y="0px"
	 viewBox="0 0 18 18" enable-background="new 0 0 18 18" xml:space="preserve">
<g>
	<path fill="#FF9641" d="M16,16H2c-0.8,0-1.5-0.7-1.5-1.5v-11C0.5,2.7,1.2,2,2,2h14c0.8,0,1.5,0.7,1.5,1.5v11
		C17.5,15.3,16.8,16,16,16z M2,3C1.7,3,1.5,3.2,1.5,3.5v11C1.5,14.8,1.7,15,2,15h14c0.3,0,0.5-0.2,0.5-0.5v-11C16.5,3.2,16.3,3,16,3
		H2z"/>
	<path fill="#FF9641" d="M13,7.7c-1.1,0-2-0.9-2-2c0-1.1,0.9-2,2-2c1.1,0,2,0.9,2,2C15,6.8,14.1,7.7,13,7.7z M13,4.7
		c-0.6,0-1,0.4-1,1s0.4,1,1,1c0.6,0,1-0.4,1-1S13.5,4.7,13,4.7z"/>
	<path fill="#FF9641" d="M14.7,14.2H3.1c-0.3,0-0.5-0.1-0.7-0.3c-0.2-0.2-0.3-0.5-0.3-0.7c0.2-3.8,2.2-6.6,4.6-6.6
		c1.4,0,2.7,1,3.6,2.6c0.5-0.4,1.1-0.6,1.7-0.6c1.8,0,3.4,1.9,3.6,4.5c0,0.3-0.1,0.6-0.3,0.8C15.2,14.1,15,14.2,14.7,14.2z M6.8,7.6
		c-1.9,0-3.5,2.5-3.6,5.7l11.5,0c-0.2-2-1.3-3.6-2.6-3.6c-0.6,0-1.1,0.4-1.5,0.7c-0.1,0.1-0.3,0.2-0.5,0.2c-0.2,0-0.3-0.1-0.4-0.3
		C9.1,8.6,8,7.6,6.8,7.6z"/>
</g>
</svg>
