<?xml version="1.0" encoding="utf-8"?>
<!-- Generator: Adobe Illustrator 18.1.1, SVG Export Plug-In . SVG Version: 6.00 Build 0)  -->
<svg version="1.1" baseProfile="tiny" id="图层_1"
	 xmlns="http://www.w3.org/2000/svg" xmlns:xlink="http://www.w3.org/1999/xlink" x="0px" y="0px" viewBox="0 0 18 18"
	 xml:space="preserve">
<path fill="#4385F5" d="M16.4,0L16.4,0h-4c-0.4,0-0.8,0.4-0.8,0.8l0,0c0,0.4,0.4,0.8,0.8,0.8h2.9l-3,3C9.3,2.2,5,2.4,2.2,5.1
	c-2.9,2.9-2.9,7.7,0,10.7c2.9,2.9,7.7,2.9,10.7,0c2.7-2.7,2.9-7.1,0.5-10.1l3-3v2.9c0,0.4,0.4,0.8,0.8,0.8l0,0
	c0.4,0,0.8-0.4,0.8-0.8v-4V0.8C18,0.4,17.6,0,17.2,0H16.4L16.4,0z M11.7,14.7c-2.3,2.3-6.1,2.3-8.4,0C1,12.4,1,8.6,3.3,6.3
	C5.7,4,9.4,4,11.7,6.3C14.1,8.6,14.1,12.4,11.7,14.7L11.7,14.7z"/>
</svg>
