<?xml version="1.0" encoding="utf-8"?>
<!-- Generator: Adobe Illustrator 18.1.1, SVG Export Plug-In . SVG Version: 6.00 Build 0)  -->
<svg version="1.0" id="图层_1" xmlns="http://www.w3.org/2000/svg" xmlns:xlink="http://www.w3.org/1999/xlink" x="0px" y="0px"
	 viewBox="0 0 18 18" enable-background="new 0 0 18 18" xml:space="preserve">
<path fill="#808080" d="M15.9,6.5h-3.6c-1.1,0-2.3-1.2-2.3-2.3V0.5h1v3.8c0,0.5,0.8,1.3,1.3,1.3h3.6V6.5z"/>
<rect x="4.7" y="13.3" fill="#808080" width="9" height="1"/>
<rect x="4.7" y="10.1" fill="#808080" width="9" height="1"/>
<rect x="4.7" y="6.6" fill="#808080" width="4.3" height="1"/>
<rect x="4.7" y="3.4" fill="#808080" width="4.3" height="1"/>
<path fill="#808080" d="M10.2,1l5,5c0.1,0.1,0.1,0.2,0.1,0.4v10.1c0,0.3-0.2,0.5-0.5,0.5H3.2c-0.3,0-0.5-0.2-0.5-0.5v-15
	C2.7,1.2,2.9,1,3.2,1H10.2 M10.2,0H2.5C2.1,0,1.7,0.4,1.7,0.8v16.4c0,0.4,0.4,0.8,0.8,0.8h12.9c0.5,0,0.8-0.4,0.8-0.8
	c0,0,0-11.2,0-11.4c0,0,0,0,0,0h0L10.7,0c0,0,0,0,0,0l0,0v0c0,0,0,0,0,0L10.2,0L10.2,0z"/>
</svg>
