<?xml version="1.0" encoding="utf-8"?>
<!-- Generator: Adobe Illustrator 18.1.1, SVG Export Plug-In . SVG Version: 6.00 Build 0)  -->
<svg version="1.1" baseProfile="tiny" id="图层_1"
	 xmlns="http://www.w3.org/2000/svg" xmlns:xlink="http://www.w3.org/1999/xlink" x="0px" y="0px" viewBox="0 0 34 34"
	 xml:space="preserve">
<path fill="#FFFFFF" d="M25.7,17.1h-1.2v-6.8C24.5,8.5,23,7,21.2,7h-8.3c-1.8,0-3.3,1.5-3.3,3.3v6.8H8.3c-1.5,0-2.8,1.2-2.8,2.7v2.6
	c0,1.5,1.2,2.7,2.8,2.7h1.6c0.6,1.1,1.7,1.9,3.1,1.9h8.1c1.4,0,2.5-0.8,3.1-1.9h1.5c1.5,0,2.8-1.2,2.8-2.7v-2.6
	C28.5,18.3,27.3,17.1,25.7,17.1z M11,10.3c0-1.1,0.9-1.9,1.9-1.9h8.3c1.1,0,1.9,0.9,1.9,1.9v6.8H11V10.3z M21.1,25.6H13
	c-1.1,0-2-0.9-2-2c0-1.1,0.9-2,2-2h8.1c1.1,0,2,0.9,2,2C23.1,24.7,22.2,25.6,21.1,25.6z M27.1,22.4c0,0.8-0.6,1.4-1.4,1.4h-1.2
	c0,0,0-0.1,0-0.1c0-1.9-1.5-3.4-3.4-3.4H13c-1.9,0-3.4,1.5-3.4,3.4c0,0,0,0.1,0,0.1H8.3c-0.8,0-1.4-0.6-1.4-1.4v-2.6
	c0-0.8,0.6-1.4,1.4-1.4h17.4c0.8,0,1.4,0.6,1.4,1.4V22.4z"/>
</svg>
