<?xml version="1.0" encoding="utf-8"?>
<!-- Generator: Adobe Illustrator 18.1.1, SVG Export Plug-In . SVG Version: 6.00 Build 0)  -->
<svg version="1.0" id="图层_1" xmlns="http://www.w3.org/2000/svg" xmlns:xlink="http://www.w3.org/1999/xlink" x="0px" y="0px"
	 viewBox="0 0 18 18" enable-background="new 0 0 18 18" xml:space="preserve">
<path fill="#FF9641" d="M0.6,18C0.3,18,0,17.7,0,17.4V0.6C0,0.3,0.3,0,0.6,0h15.1c0.2,0,0.3,0.1,0.4,0.2l1.7,1.7
	C17.9,2,18,2.1,18,2.3v15.1c0,0.3-0.3,0.6-0.6,0.6H0.6L0.6,18z M16.8,16.8V2.5l-1.4-1.3l-2.7,0v5.1c0,0.3-0.3,0.6-0.6,0.6H3.8
	c-0.3,0-0.6-0.3-0.6-0.6V1.2h-2v15.6h2v-6.2c0-1.1,0.9-2,2-2H13c1.1,0,2,0.9,2,2v6.2L16.8,16.8L16.8,16.8z M13.8,16.8v-6.2
	c0-0.5-0.4-0.8-0.8-0.8H5.2c-0.5,0-0.8,0.4-0.8,0.8v6.2L13.8,16.8L13.8,16.8z M11.5,5.7V1.2H4.4v4.5L11.5,5.7L11.5,5.7z M6.4,15.2
	c-0.3,0-0.6-0.3-0.6-0.6c0-0.3,0.3-0.6,0.6-0.6h5.3c0.3,0,0.6,0.3,0.6,0.6c0,0.3-0.3,0.6-0.6,0.6H6.4L6.4,15.2z M6.4,12.5
	c-0.3,0-0.6-0.3-0.6-0.6c0-0.3,0.3-0.6,0.6-0.6h5.3c0.3,0,0.6,0.3,0.6,0.6c0,0.3-0.3,0.6-0.6,0.6H6.4L6.4,12.5z"/>
</svg>
