<?xml version="1.0" encoding="utf-8"?>
<!-- Generator: Adobe Illustrator 18.1.1, SVG Export Plug-In . SVG Version: 6.00 Build 0)  -->
<svg version="1.1" id="图层_1" xmlns="http://www.w3.org/2000/svg" xmlns:xlink="http://www.w3.org/1999/xlink" x="0px" y="0px"
	 viewBox="26 18.5 28.1 42.8" enable-background="new 26 18.5 28.1 42.8" xml:space="preserve">
<path fill="#FFFFFF" d="M48.4,48.4c-2.3-0.3-4.4,0.7-5.7,2.4l-6.4-3.6c0.3-0.5,0.4-1.1,0.5-1.7c0.1-1.6-0.3-3.1-1.2-4.3l7.6-8.7
	c0.8,0.4,1.6,0.8,2.5,0.8c4,0.5,7.5-2.4,8-6.5c0.5-4-2.4-7.7-6.3-8.3c-4-0.5-7.5,2.4-8,6.5c-0.3,2.1,0.4,4.1,1.7,5.7l-7.7,8.8
	c-0.4-0.1-0.9-0.3-1.5-0.4c-2.9-0.4-5.7,1.9-6,4.9c-0.4,3.1,1.7,5.9,4.8,6.3c1.5,0.1,2.8-0.3,3.9-1.1l6.9,3.9
	c-0.1,0.3-0.1,0.5-0.1,0.8c-0.4,3.6,2,6.8,5.5,7.2c3.5,0.4,6.7-2.1,7.1-5.7C54.4,52,51.9,48.8,48.4,48.4L48.4,48.4z"/>
</svg>
