<?xml version="1.0" encoding="utf-8"?>
<!-- Generator: Adobe Illustrator 18.1.1, SVG Export Plug-In . SVG Version: 6.00 Build 0)  -->
<svg version="1.1" baseProfile="basic" id="图层_1"
	 xmlns="http://www.w3.org/2000/svg" xmlns:xlink="http://www.w3.org/1999/xlink" x="0px" y="0px" viewBox="0 0 380 781"
	 xml:space="preserve">
<path fill-rule="evenodd" clip-rule="evenodd" fill="#FFFFFF" d="M327.5,0.5h-274c-29.3,0-53,23.7-53,53v675c0,29.3,23.7,53,53,53
	h274c29.3,0,53-23.7,53-53v-675C380.5,24.2,356.8,0.5,327.5,0.5z M213.8,50.1h-46.7c-1.1,0-2-0.9-2-2c0-1.1,0.9-2,2-2h46.7
	c1.1,0,2,0.9,2,2C215.8,49.2,214.9,50.1,213.8,50.1z"/>
<path fill-rule="evenodd" clip-rule="evenodd" fill="#FF9641" d="M190.5,712.5c14.4,0,26,11.6,26,26c0,14.4-11.6,26-26,26
	c-14.4,0-26-11.6-26-26C164.5,724.1,176.1,712.5,190.5,712.5z"/>
<path fill-rule="evenodd" clip-rule="evenodd" fill="#FFFFFF" d="M188.5,754.5h-0.3c-2.3,0-4.4-0.7-6.1-1.9h0c1.9,0.7,3.6,0.7,5,0.4
	c-0.2,0-0.3,0-0.5-0.1c0,0,0,0,0,0c-0.2,0-0.5-0.1-0.7-0.1c-0.1,0-0.1,0-0.2,0c-0.2-0.1-0.5-0.1-0.7-0.2c-0.2-0.1-0.5-0.2-0.7-0.2
	c-0.1,0-0.1,0-0.2-0.1c-0.4-0.2-0.9-0.4-1.3-0.6c0,0-0.1-0.1-0.1-0.1c-2.6-1.5-4.5-4.1-5.2-7.2c1,1.1,2.4,2,4,2.5
	c0.9,0.3,1.6,1,2,1.8c0.7,1.5,2.2,2.5,3.9,2.5c2.2,0,4.1-1.7,4.2-3.9c0-0.8,0-1.8,0-2c0-0.1,0-0.2,0-0.3v-5.3
	c0.3-8.5,3.7-13.2,7.8-13.2v5.6v9.1c0,0.4,0,0.8,0,1.1v0.1C199.5,752.5,191.7,754.4,188.5,754.5z M188.5,744.1c-3,0-5.5-2.4-5.5-5.5
	v-12.1c3.4,0,6.1,3.7,6.1,10.9v6C189.1,743.8,188.9,744.1,188.5,744.1z"/>
</svg>
