<?xml version="1.0" encoding="utf-8"?>
<!-- Generator: Adobe Illustrator 18.1.1, SVG Export Plug-In . SVG Version: 6.00 Build 0)  -->
<svg version="1.1" id="图层_1" xmlns="http://www.w3.org/2000/svg" xmlns:xlink="http://www.w3.org/1999/xlink" x="0px" y="0px"
	 viewBox="22.7 22.7 34.7 34.7" enable-background="new 22.7 22.7 34.7 34.7" xml:space="preserve">
<path fill="#FFFFFF" d="M40,57.3c-9.6,0-17.3-7.7-17.3-17.3S30.4,22.7,40,22.7S57.3,30.4,57.3,40S49.6,57.3,40,57.3L40,57.3z
	 M40,52.4c2.5,0,4.9-0.8,6.8-2.1L29.7,33.2c-1.3,2-2.1,4.3-2.1,6.8C27.6,46.8,33.2,52.4,40,52.4L40,52.4z M33.2,29.7l17.2,17.2
	c1.3-2,2-4.3,2-6.8c0-6.8-5.6-12.4-12.4-12.4C40,27.6,37.3,26.9,33.2,29.7z"/>
</svg>
