<?xml version="1.0" encoding="utf-8"?>
<!-- Generator: Adobe Illustrator 18.1.1, SVG Export Plug-In . SVG Version: 6.00 Build 0)  -->
<svg version="1.1" baseProfile="basic" id="图层_1"
	 xmlns="http://www.w3.org/2000/svg" xmlns:xlink="http://www.w3.org/1999/xlink" x="0px" y="0px" viewBox="0 0 18 18"
	 xml:space="preserve">
<g>
	<path fill="#FF9641" d="M17.5,7.2l-2.4-1.8c0,0,0-0.1,0-0.1V2.7c0-0.7-0.6-1.2-1.3-1.2h-0.9c-0.7,0-1.3,0.5-1.3,1.2v0L9.8,1.3
		c-0.5-0.4-1.2-0.4-1.7,0L0.5,7c-0.6,0.4-0.7,1.2-0.2,1.7C0.8,9.3,1.6,9.4,2.1,9l6.8-5.1l6.9,5.3c0.6,0.4,1.4,0.4,1.9-0.2
		C18.2,8.5,18.1,7.7,17.5,7.2z M2.5,9.3v6.5c0,0.7,0.6,1.2,1.3,1.2H14c0.7,0,1.3-0.5,1.3-1.2V9.5L8.9,4.7L2.5,9.3z"/>
</g>
</svg>
